<svg width="20" height="17" viewBox="0 0 20 17" fill="none" xmlns="http://www.w3.org/2000/svg">
<path fill-rule="evenodd" clip-rule="evenodd" d="M16.8687 0.568713C17.2116 0.20572 17.6745 0.00143005 18.1573 7.47931e-06C18.6401 -0.00141509 19.1041 0.200144 19.4488 0.561111C19.7936 0.922077 19.9915 1.41345 19.9997 1.92898C20.008 2.44452 19.8259 2.94281 19.4928 3.31611L9.71175 16.3728C9.54364 16.5662 9.34076 16.7213 9.11521 16.829C8.88967 16.9367 8.6461 16.9948 8.39908 16.9997C8.15205 17.0045 7.90664 16.9562 7.67751 16.8575C7.44839 16.7588 7.24026 16.6117 7.06557 16.4251L0.584875 9.50168C0.40433 9.32202 0.25952 9.10537 0.159083 8.86465C0.058646 8.62393 0.0046394 8.36406 0.000285983 8.10057C-0.00406744 7.83707 0.0413216 7.57534 0.133744 7.33098C0.226167 7.08663 0.363731 6.86465 0.538229 6.6783C0.712727 6.49195 0.920583 6.34505 1.1494 6.24635C1.37822 6.14765 1.62331 6.09918 1.87004 6.10383C2.11678 6.10848 2.36012 6.16615 2.58553 6.27341C2.81094 6.38067 3.01382 6.53531 3.18205 6.72812L8.3127 12.2046L16.8221 0.626278C16.8373 0.606009 16.8512 0.586782 16.8687 0.568713Z" fill="#4B49BF"/>
</svg>
