<svg width="12" height="7" viewBox="0 0 12 7" fill="none" xmlns="http://www.w3.org/2000/svg">
<path d="M0.327898 0.358007C0.778951 -0.101149 1.40691 -0.137182 1.95831 0.358007L6.00123 4.21553L10.0441 0.358007C10.5955 -0.137182 11.2245 -0.101149 11.6725 0.358007C12.1235 0.816133 12.0946 1.59032 11.6725 2.02065C11.2525 2.45098 6.8154 6.65544 6.8154 6.65544C6.70973 6.76442 6.5831 6.85109 6.44303 6.91029C6.30297 6.96949 6.15236 7 6.00019 7C5.84802 7 5.69741 6.96949 5.55735 6.91029C5.41729 6.85109 5.29065 6.76442 5.18499 6.65544C5.18499 6.65544 0.749984 2.45098 0.327898 2.02065C-0.0952219 1.59032 -0.123154 0.816133 0.327898 0.358007Z" fill="#747474"/>
</svg>
