<svg width="42" height="42" viewBox="0 0 42 42" fill="none" xmlns="http://www.w3.org/2000/svg">
<path d="M39.7593 9.46222H33.9333C34.8844 8.42027 35.4668 7.02951 35.4668 5.50356C35.4668 5.50356 35.4656 5.27063 35.4634 5.20415C35.4005 3.32102 34.3842 1.64164 32.745 0.711428C31.0726 -0.23735 29.0803 -0.237101 27.4156 0.71234L24.766 2.22337C23.1066 3.16974 21.808 4.59614 21 6.27337C20.1921 4.59614 18.8935 3.16975 17.2341 2.22345L14.5845 0.712257C12.9199 -0.237101 10.9276 -0.237433 9.25519 0.711345C7.61596 1.64147 6.59967 3.32094 6.53676 5.20407C6.53454 5.27055 6.53339 5.50348 6.53339 5.50348C6.53339 7.02943 7.11573 8.42019 8.06689 9.46222H2.24077C1.00521 9.46222 0 10.4781 0 11.7266V17.1008C0 18.3493 1.00521 19.365 2.24077 19.365H3.26665V39.7357C3.26665 40.9842 4.27187 42 5.50743 42H36.4926C37.7281 42 38.7333 40.9842 38.7333 39.7357V19.3649H39.7592C40.9948 19.3649 42 18.3492 42 17.1007V11.7265C42.0001 10.4781 40.9949 9.46222 39.7593 9.46222ZM25.6835 3.86603L28.3331 2.355C29.4248 1.73232 30.7325 1.73282 31.8311 2.35616C32.8966 2.96069 33.5571 4.04914 33.5978 5.2679C33.5992 5.31316 33.6 5.50356 33.6 5.50356C33.6 7.68643 31.8425 9.4623 29.6823 9.4623H21.9867C22.2665 7.12906 23.6296 5.03729 25.6835 3.86603ZM8.40223 5.26782C8.443 4.04914 9.10344 2.96069 10.1689 2.35608C10.7187 2.04416 11.3205 1.88832 11.9216 1.88832C12.5218 1.88832 13.1214 2.04383 13.6668 2.355L16.3165 3.86603C18.3704 5.03729 19.7334 7.12906 20.0131 9.46213H12.3175C10.1574 9.46213 8.39993 7.68626 8.39993 5.50348C8.40002 5.50356 8.40076 5.31307 8.40223 5.26782ZM16.8001 22.2341H12.9576C12.4421 22.2341 12.0242 22.6564 12.0242 23.1772C12.0242 23.698 12.4421 24.1204 12.9576 24.1204H16.8001V40.1137H5.50743C5.30112 40.1137 5.13336 39.9442 5.13336 39.7358V19.3649H16.8001V22.2341ZM16.8001 17.4788H2.24077C2.03446 17.4787 1.86671 17.3092 1.86671 17.1008V11.7266C1.86671 11.5181 2.03454 11.3486 2.24077 11.3486H16.8001V17.4788ZM23.3332 40.1136H18.6668V11.3484H23.3332V40.1136ZM36.8667 39.7357C36.8667 39.9442 36.6989 40.1137 36.4927 40.1137H25.1999V24.1203H28.7564C29.2718 24.1203 29.6897 23.6979 29.6897 23.1771C29.6897 22.6563 29.2718 22.234 28.7564 22.234H25.1999V19.3649H36.8668V39.7357H36.8667ZM40.1334 17.1008C40.1334 17.3092 39.9655 17.4788 39.7593 17.4788H25.1999V11.3485H39.7594C39.9656 11.3485 40.1335 11.5181 40.1335 11.7266V17.1008H40.1334Z" fill="#4B49BF"/>
<path d="M33.1897 24.1203H33.2831C33.7986 24.1203 34.2165 23.6979 34.2165 23.1771C34.2165 22.6563 33.7986 22.234 33.2831 22.234H33.1897C32.6743 22.234 32.2564 22.6563 32.2564 23.1771C32.2565 23.6979 32.6743 24.1203 33.1897 24.1203Z" fill="#4B49BF"/>
<path d="M8.43102 24.1203H8.52438C9.03986 24.1203 9.45773 23.6979 9.45773 23.1771C9.45773 22.6563 9.03978 22.234 8.52438 22.234H8.43102C7.91554 22.234 7.49767 22.6563 7.49767 23.1771C7.49767 23.6979 7.91554 24.1203 8.43102 24.1203Z" fill="#4B49BF"/>
</svg>
