<svg width="183" height="187" viewBox="0 0 183 187" fill="none" xmlns="http://www.w3.org/2000/svg">
<path d="M79.9748 52.3367C80.2274 51.3183 80.478 50.2979 80.721 49.3007C80.9794 48.2418 81.2397 47.183 81.5019 46.1241L81.6774 45.4234C82.0303 44.016 82.3986 42.5895 82.7553 41.2072C83.004 40.2446 83.2508 39.282 83.4957 38.3213L83.5458 38.125C83.7772 37.2375 84.159 36.1266 85.0788 35.4066C85.4934 35.0832 85.9137 34.9369 86.4575 34.8059C86.9511 34.6885 87.3464 34.7212 87.5836 34.7405C87.626 34.7443 87.6626 34.7463 87.6935 34.7482C89.7355 34.8599 96.1295 35.0427 101.268 35.1891C104.779 35.2892 107.811 35.3758 108.181 35.4047C108.705 35.4451 109.014 35.6627 109.4 36.0477C109.934 36.5829 109.995 37.5108 109.984 37.6591C109.949 38.1365 109.841 38.6236 109.737 39.0953C109.708 39.2243 109.681 39.3532 109.654 39.4822C109.386 40.7586 109.099 42.0235 108.825 43.2094C108.47 44.7553 108.084 46.3975 107.575 48.5345C107.099 50.5366 106.592 52.6428 105.979 55.1629C105.805 55.879 105.628 56.5952 105.454 57.3114C105.514 57.3287 105.576 57.346 105.636 57.3653C105.661 57.3711 105.684 57.3788 105.707 57.3845C105.882 56.6645 106.06 55.9445 106.235 55.2245C106.847 52.7025 107.354 50.5963 107.832 48.5941C108.341 46.4572 108.727 44.815 109.081 43.2671C109.355 42.0793 109.644 40.8145 109.911 39.5361C109.938 39.4091 109.965 39.2801 109.993 39.1511C110.099 38.6698 110.209 38.1731 110.246 37.6783C110.26 37.5012 110.198 36.4732 109.587 35.8609C109.166 35.4413 108.806 35.1891 108.202 35.1409C107.826 35.1121 104.936 35.0293 101.278 34.9253C96.141 34.779 89.749 34.5961 87.7108 34.4844C87.6819 34.4825 87.6491 34.4806 87.6086 34.4767C87.3734 34.4575 86.9337 34.419 86.3996 34.548C85.8366 34.6827 85.3699 34.8445 84.9207 35.1968C83.9276 35.9745 83.5169 37.2009 83.2952 38.0576L83.245 38.254C83.0002 39.2166 82.7514 40.1791 82.5046 41.1398C82.1479 42.5221 81.7796 43.9506 81.4267 45.3579L81.2513 46.0587C80.989 47.1175 80.7287 48.1764 80.4703 49.2352C80.2254 50.2363 79.9748 51.2586 79.7222 52.2789C79.8012 52.3001 79.888 52.3155 79.9748 52.3367Z" fill="#141414"/>
<path d="M80.4913 52.4697C80.7883 51.1356 81.0968 49.7706 81.4362 48.4326L82.0976 45.8413C82.5063 44.2396 82.9132 42.6359 83.3181 41.0341C83.3702 40.8262 83.4222 40.6125 83.4743 40.395C84.0258 38.1078 84.6486 35.5088 87.4985 35.5897C88.64 35.6205 89.7989 35.6629 90.9192 35.7052C92.3499 35.7591 93.8289 35.813 95.2905 35.8438L107.627 36.0979C107.992 36.1056 108.352 36.3347 108.534 36.4695C109.168 36.9431 109.158 37.7979 109.095 38.6334C108.996 39.9214 108.647 41.2459 108.31 42.5261C108.188 42.9882 108.061 43.4656 107.951 43.9277C107.047 47.728 106.106 51.4917 105.14 55.3344C104.993 55.9158 104.845 56.5049 104.694 57.1037C104.779 57.1248 104.866 57.1441 104.951 57.1672C105.101 56.5704 105.25 55.9813 105.396 55.3999C106.362 51.5553 107.305 47.7915 108.21 43.9893C108.32 43.5311 108.445 43.0536 108.566 42.5935C108.908 41.3017 109.259 39.9676 109.359 38.6546C109.413 37.9404 109.496 36.8584 108.694 36.2597C108.487 36.1056 108.073 35.8457 107.635 35.8361L95.2982 35.582C93.8405 35.5512 92.3615 35.4973 90.9327 35.4434C89.8105 35.401 88.6516 35.3587 87.5082 35.3279C84.45 35.247 83.7655 38.0674 83.2198 40.3334C83.1677 40.549 83.1157 40.7627 83.0636 40.9687C82.6587 42.5724 82.2499 44.1741 81.843 45.7759L81.1816 48.3672C80.8404 49.7052 80.5318 51.0701 80.2368 52.4024C80.3217 52.4274 80.4084 52.4466 80.4913 52.4697Z" fill="#141414"/>
<path d="M111.843 40.3159C111.739 40.8531 111.633 41.4094 111.488 41.9158C111.341 42.424 111.21 42.9457 111.083 43.4482L110.996 43.787C110.915 44.1066 110.834 44.4262 110.749 44.7439C110.485 45.7527 110.223 46.7615 109.961 47.7722C109.646 48.9812 109.334 50.1921 109.022 51.4012C108.665 52.7854 108.308 54.1696 107.952 55.5538C107.747 56.347 107.545 57.1382 107.34 57.9314C107.416 57.9641 107.491 57.9988 107.566 58.0334C107.772 57.2268 107.981 56.4201 108.187 55.6135C108.544 54.2293 108.9 52.845 109.257 51.4608C109.569 50.2518 109.882 49.0409 110.196 47.8319C110.458 46.8231 110.721 45.8143 110.985 44.8055C111.068 44.4859 111.151 44.1663 111.232 43.8467L111.318 43.5079C111.446 43.0054 111.577 42.4875 111.721 41.9812C111.87 41.4653 111.978 40.9031 112.082 40.3602L112.155 39.9886C112.388 38.8124 112.149 37.8132 111.465 37.0989C110.886 36.4964 110.156 36.0709 109.45 35.6589C109.296 35.5684 109.139 35.4779 108.987 35.3875L108.862 35.5973C109.016 35.6897 109.17 35.7802 109.326 35.8707C110.019 36.275 110.734 36.6908 111.289 37.2684C111.926 37.9325 112.138 38.8316 111.918 39.9424L111.843 40.3159Z" fill="#141414"/>
<path d="M82.0357 53.0743L85.5084 39.5999L106.565 40.5143L102.467 56.6994C102.548 56.709 102.629 56.7206 102.71 56.7321L106.837 40.4296L106.873 40.2853L85.3194 39.3496L81.8101 52.9665C81.8872 52.9992 81.9624 53.0377 82.0357 53.0743Z" fill="#141414"/>
<path d="M89.2224 128.603C89.1241 128.561 89.0489 128.53 88.9756 128.499C88.0095 128.091 87.0435 127.683 86.0794 127.274C85.7265 127.124 85.6629 126.966 85.8114 126.614C86.2298 125.625 86.6501 124.635 87.0705 123.646C87.2074 123.324 87.3617 123.259 87.6837 123.395C91.2123 124.885 94.741 126.377 98.2677 127.867C98.5936 128.004 98.6572 128.16 98.5203 128.48C98.0961 129.481 97.67 130.484 97.2438 131.485C97.1108 131.797 96.9604 131.86 96.6441 131.727C95.6646 131.317 94.6851 130.907 93.7055 130.497C93.6322 130.466 93.559 130.436 93.4626 130.395C93.4124 130.513 93.3739 130.605 93.3334 130.697C91.328 135.43 89.3207 140.164 87.3154 144.896C87.2807 144.977 87.2498 145.063 87.2016 145.136C87.0956 145.296 86.9259 145.323 86.6868 145.223C85.9483 144.909 85.2117 144.595 84.4732 144.282C84.0817 144.116 83.6903 143.95 83.3008 143.783C82.9672 143.641 82.9094 143.49 83.0521 143.152C85.0497 138.439 87.0493 133.724 89.0469 129.011C89.1028 128.886 89.1568 128.761 89.2224 128.603ZM89.261 127.806C90.8556 128.48 92.429 129.144 94.0083 129.812C94.363 128.974 94.714 128.149 95.0649 127.319C93.4761 126.647 91.9026 125.983 90.3176 125.313C89.9648 126.146 89.6158 126.966 89.261 127.806ZM95.4679 127.473C95.1073 128.322 94.7545 129.155 94.4035 129.983C95.171 130.309 95.9249 130.626 96.6789 130.944C97.0375 130.099 97.3884 129.271 97.7432 128.433C96.9816 128.112 96.2334 127.796 95.4679 127.473ZM86.5884 126.676C87.3597 127.001 88.1079 127.317 88.8541 127.633C89.2108 126.793 89.5598 125.967 89.9108 125.141C89.1472 124.818 88.399 124.502 87.6451 124.185C87.2922 125.018 86.9432 125.84 86.5884 126.676ZM89.1183 130.736C89.1356 130.746 89.1472 130.759 89.1588 130.759C90.2231 130.817 91.2875 130.873 92.35 130.927C92.3905 130.929 92.456 130.907 92.4695 130.878C92.5833 130.626 92.6893 130.372 92.7954 130.12C91.8081 129.702 90.8556 129.3 89.8973 128.896C89.6331 129.519 89.3767 130.128 89.1183 130.736ZM85.1828 140.008C85.2098 140.025 85.2213 140.039 85.2329 140.039C86.2915 140.098 87.3501 140.16 88.4087 140.212C88.4607 140.214 88.5398 140.148 88.5649 140.096C88.6651 139.886 88.7481 139.669 88.8387 139.455C88.9119 139.284 88.9852 139.111 89.0681 138.914C87.9555 138.856 86.8912 138.801 85.8249 138.749C85.7805 138.747 85.7092 138.778 85.6937 138.81C85.5183 139.209 85.3505 139.609 85.1828 140.008ZM83.8253 143.204C83.8619 143.219 83.8812 143.232 83.8986 143.234C84.9494 143.29 86.0003 143.346 87.0512 143.396C87.0956 143.398 87.1688 143.369 87.1823 143.334C87.3501 142.957 87.5101 142.574 87.6663 142.202C87.649 142.179 87.6451 142.17 87.6393 142.17C86.5692 142.112 85.4971 142.054 84.4269 142.002C84.3864 142 84.3208 142.039 84.3054 142.075C84.1434 142.451 83.9853 142.826 83.8253 143.204ZM85.9039 138.304C85.9328 138.323 85.9444 138.337 85.956 138.337C87.0146 138.394 88.0732 138.45 89.1318 138.504C89.1742 138.506 89.2455 138.473 89.261 138.437C89.4229 138.071 89.5772 137.701 89.743 137.309C88.6381 137.249 87.5622 137.191 86.4843 137.137C86.4477 137.135 86.3898 137.168 86.3744 137.201C86.2144 137.568 86.0582 137.938 85.9039 138.304ZM91.0214 134.313C89.9069 134.257 88.8425 134.201 87.7762 134.151C87.7299 134.149 87.6547 134.19 87.6374 134.23C87.4831 134.573 87.3404 134.918 87.1958 135.262C87.2228 135.276 87.2344 135.287 87.246 135.287C88.3046 135.345 89.3651 135.405 90.4237 135.457C90.4719 135.458 90.5471 135.42 90.5664 135.381C90.7168 135.041 90.8595 134.694 91.0214 134.313ZM84.5233 141.559C84.558 141.577 84.5754 141.592 84.5946 141.592C85.6455 141.648 86.6964 141.704 87.7473 141.754C87.7936 141.756 87.8707 141.715 87.8881 141.675C88.0404 141.336 88.1831 140.991 88.3393 140.624C87.2402 140.564 86.1642 140.506 85.0863 140.452C85.0459 140.451 84.9822 140.489 84.9649 140.526C84.8125 140.868 84.6698 141.215 84.5233 141.559ZM88.4742 132.24C88.5051 132.253 88.5167 132.263 88.5302 132.263C89.5888 132.319 90.6474 132.372 91.706 132.424C91.7522 132.426 91.8255 132.401 91.8409 132.369C91.9913 132.035 92.1302 131.697 92.2844 131.335C91.1718 131.277 90.1075 131.221 89.0431 131.173C88.9929 131.171 88.9139 131.221 88.8927 131.267C88.748 131.583 88.6169 131.905 88.4742 132.24ZM87.8514 133.712C87.8784 133.726 87.89 133.737 87.9035 133.737C88.9621 133.797 90.0226 133.855 91.0812 133.909C91.1256 133.911 91.1988 133.884 91.2143 133.849C91.3608 133.52 91.4996 133.189 91.65 132.831C90.5394 132.775 89.4673 132.719 88.3952 132.669C88.3528 132.667 88.2853 132.702 88.2698 132.736C88.1252 133.06 87.9883 133.387 87.8514 133.712ZM90.3523 135.87C89.2475 135.811 88.1773 135.753 87.1071 135.699C87.0686 135.697 87.003 135.72 86.9895 135.749C86.8487 136.063 86.7176 136.381 86.573 136.721C87.6817 136.781 88.75 136.839 89.8201 136.891C89.8626 136.893 89.9281 136.854 89.9455 136.818C90.0824 136.515 90.2096 136.207 90.3523 135.87ZM85.0921 143.71C85.0883 143.721 85.0863 143.731 85.0825 143.743C85.6262 143.972 86.1681 144.201 86.7118 144.432C86.8005 144.222 86.8835 144.026 86.9741 143.816C86.332 143.777 85.7111 143.743 85.0921 143.71Z" fill="#141414"/>
<path d="M69.6779 46.8808C68.6039 46.8808 67.528 46.8769 66.4539 46.8846C66.2052 46.8865 66.049 46.7903 65.9275 46.5785C64.8593 44.7188 63.7853 42.861 62.7055 41.007C62.5685 40.7702 62.5666 40.5739 62.7055 40.3371C63.7814 38.4889 64.8496 36.6388 65.914 34.7848C66.0452 34.5577 66.209 34.4595 66.4771 34.4595C68.6116 34.4691 70.7442 34.4691 72.8788 34.4614C73.1622 34.4595 73.3358 34.5577 73.4785 34.806C74.5332 36.6484 75.5957 38.485 76.6639 40.3178C76.8124 40.5719 76.8105 40.7741 76.662 41.0282C75.5918 42.861 74.5313 44.6995 73.4765 46.54C73.3358 46.7845 73.1622 46.8904 72.8769 46.8865C71.8125 46.8731 70.7442 46.8808 69.6779 46.8808ZM69.6876 35.2912C68.7215 35.2912 67.7555 35.2931 66.7914 35.2873C66.6448 35.2873 66.5542 35.322 66.4771 35.4586C65.511 37.1451 64.5392 38.8277 63.5654 40.5084C63.498 40.6239 63.4941 40.7048 63.5635 40.8222C64.5373 42.5029 65.5091 44.1874 66.4751 45.8739C66.5503 46.0048 66.6313 46.0549 66.7856 46.0549C68.7254 46.0491 70.6633 46.0491 72.6031 46.0549C72.7573 46.0549 72.8383 46.0029 72.9116 45.872C73.8738 44.1932 74.8398 42.5164 75.8136 40.8415C75.8926 40.7067 75.883 40.6143 75.8078 40.4834C74.8398 38.8162 73.8757 37.147 72.9174 35.474C72.8383 35.3354 72.7515 35.2815 72.5896 35.2835C71.6197 35.2969 70.6536 35.2912 69.6876 35.2912Z" fill="#141414"/>
<path d="M89.2612 127.806C89.616 126.969 89.965 126.147 90.3179 125.313C91.9029 125.983 93.4763 126.647 95.0652 127.319C94.7143 128.149 94.3633 128.975 94.0085 129.812C92.4293 129.144 90.8559 128.48 89.2612 127.806Z" fill="white"/>
<path d="M95.4682 127.473C96.2318 127.796 96.9818 128.112 97.7435 128.434C97.3887 129.271 97.0377 130.099 96.6791 130.944C95.9252 130.626 95.1732 130.307 94.4038 129.983C94.7547 129.156 95.1095 128.322 95.4682 127.473Z" fill="white"/>
<path d="M86.5884 126.676C86.9412 125.842 87.2903 125.018 87.645 124.185C88.399 124.504 89.1471 124.82 89.9107 125.141C89.5598 125.967 89.2108 126.793 88.854 127.633C88.1078 127.317 87.3597 127.001 86.5884 126.676Z" fill="white"/>
<path d="M89.1187 130.736C89.377 130.128 89.6335 129.52 89.8996 128.896C90.8579 129.3 91.8124 129.704 92.7977 130.12C92.6917 130.372 92.5856 130.626 92.4718 130.879C92.4583 130.908 92.3928 130.929 92.3523 130.927C91.2879 130.873 90.2235 130.817 89.1611 130.759C89.1476 130.757 89.136 130.746 89.1187 130.736Z" fill="white"/>
<path d="M85.1826 140.008C85.3523 139.609 85.5201 139.207 85.6955 138.81C85.711 138.776 85.7823 138.747 85.8266 138.749C86.891 138.801 87.9573 138.857 89.0699 138.914C88.987 139.111 88.9137 139.282 88.8405 139.455C88.7498 139.669 88.6669 139.887 88.5667 140.097C88.5416 140.15 88.4625 140.216 88.4105 140.212C87.3519 140.16 86.2933 140.098 85.2347 140.039C85.2212 140.039 85.2096 140.025 85.1826 140.008Z" fill="white"/>
<path d="M83.8252 143.204C83.9852 142.826 84.1414 142.449 84.3073 142.075C84.3227 142.039 84.3882 142 84.4287 142.002C85.4989 142.054 86.571 142.112 87.6412 142.17C87.645 142.17 87.6489 142.179 87.6681 142.202C87.51 142.574 87.3519 142.955 87.1842 143.334C87.1687 143.369 87.0974 143.398 87.053 143.396C86.0022 143.346 84.9513 143.29 83.9004 143.234C83.8811 143.232 83.8618 143.219 83.8252 143.204Z" fill="white"/>
<path d="M85.9038 138.304C86.0581 137.938 86.2143 137.569 86.3743 137.201C86.3878 137.168 86.4476 137.135 86.4842 137.137C87.5621 137.191 88.638 137.249 89.7429 137.309C89.5771 137.701 89.4228 138.071 89.2609 138.437C89.2454 138.471 89.176 138.506 89.1317 138.504C88.0731 138.452 87.0145 138.394 85.9559 138.337C85.9443 138.337 85.9347 138.323 85.9038 138.304Z" fill="white"/>
<path d="M91.0219 134.313C90.8599 134.694 90.7172 135.041 90.5629 135.382C90.5456 135.422 90.4685 135.461 90.4202 135.457C89.3616 135.403 88.3011 135.345 87.2425 135.287C87.2309 135.287 87.2194 135.276 87.1924 135.262C87.3389 134.918 87.4816 134.573 87.6339 134.23C87.6513 134.19 87.7265 134.15 87.7728 134.151C88.841 134.201 89.9073 134.257 91.0219 134.313Z" fill="white"/>
<path d="M84.5234 141.559C84.67 141.213 84.8146 140.868 84.965 140.526C84.9804 140.489 85.046 140.451 85.0865 140.452C86.1624 140.506 87.2384 140.564 88.3394 140.624C88.1832 140.992 88.0405 141.336 87.8882 141.675C87.8708 141.715 87.7937 141.756 87.7474 141.754C86.6966 141.704 85.6457 141.648 84.5948 141.592C84.5755 141.592 84.5581 141.577 84.5234 141.559Z" fill="white"/>
<path d="M88.4746 132.24C88.6173 131.905 88.7484 131.583 88.893 131.266C88.9142 131.22 88.9933 131.17 89.0434 131.171C90.1078 131.22 91.1722 131.275 92.2848 131.333C92.1306 131.695 91.9917 132.032 91.8413 132.367C91.8259 132.4 91.7526 132.427 91.7063 132.423C90.6477 132.373 89.5891 132.317 88.5305 132.261C88.519 132.263 88.5055 132.253 88.4746 132.24Z" fill="white"/>
<path d="M87.8516 133.712C87.9885 133.387 88.1254 133.06 88.27 132.738C88.2854 132.704 88.3529 132.669 88.3953 132.671C89.4674 132.721 90.5395 132.777 91.6502 132.833C91.4979 133.191 91.3609 133.522 91.2144 133.851C91.199 133.886 91.1257 133.913 91.0814 133.911C90.0228 133.857 88.9622 133.797 87.9036 133.739C87.8901 133.736 87.8786 133.726 87.8516 133.712Z" fill="white"/>
<path d="M90.3526 135.871C90.2099 136.208 90.0826 136.516 89.9457 136.82C89.9284 136.856 89.8628 136.895 89.8204 136.893C88.7502 136.841 87.68 136.783 86.5732 136.724C86.7179 136.381 86.8509 136.065 86.9897 135.751C87.0032 135.722 87.0669 135.699 87.1074 135.701C88.1775 135.753 89.2477 135.813 90.3526 135.871Z" fill="white"/>
<path d="M85.0922 143.71C85.7111 143.745 86.3301 143.779 86.9741 143.814C86.8854 144.026 86.8025 144.22 86.7119 144.43C86.1681 144.201 85.6244 143.97 85.0825 143.741C85.0864 143.731 85.0902 143.72 85.0922 143.71Z" fill="white"/>
<path d="M50.1992 53.2936C50.1124 53.3205 50.0468 53.3417 49.9813 53.3609C49.1328 53.6266 48.2864 53.8904 47.4379 54.1541C47.1275 54.2504 47.0079 54.2099 46.9385 53.9866C46.7418 53.3571 46.5432 52.7276 46.3466 52.0961C46.2829 51.8901 46.3562 51.79 46.6377 51.7034C49.7345 50.735 52.8312 49.7685 55.9299 48.8021C56.2152 48.7135 56.3329 48.752 56.3965 48.9561C56.597 49.5934 56.7956 50.2325 56.9942 50.8717C57.0559 51.0719 56.9846 51.1682 56.7089 51.2548C55.8508 51.5262 54.9927 51.7958 54.1347 52.0653C54.0691 52.0865 54.0055 52.1057 53.9226 52.1327C53.9457 52.2078 53.965 52.2655 53.9823 52.3252C54.9272 55.3381 55.8701 58.3529 56.8149 61.3659C56.8303 61.4178 56.8516 61.4698 56.8554 61.5237C56.8631 61.6431 56.7609 61.7336 56.5507 61.799C55.9029 62.0012 55.253 62.2014 54.6052 62.4035C54.2619 62.5094 53.9187 62.6172 53.5736 62.7231C53.2805 62.8136 53.1686 62.7751 53.1011 62.5595C52.1621 59.5581 51.2211 56.5567 50.2821 53.5554C50.2551 53.4726 50.23 53.3937 50.1992 53.2936ZM49.8366 52.9239C51.2365 52.4869 52.6172 52.0557 54.0036 51.6225C53.8358 51.0892 53.6719 50.5636 53.5061 50.0342C52.112 50.4693 50.7313 50.9006 49.3392 51.3356C49.5069 51.867 49.6708 52.3887 49.8366 52.9239ZM53.8532 49.9168C54.0228 50.4578 54.1887 50.9891 54.3545 51.5166C55.0294 51.3068 55.6908 51.0989 56.3521 50.8929C56.1844 50.3557 56.0186 49.8263 55.8508 49.293C55.1836 49.5029 54.5242 49.7069 53.8532 49.9168ZM47.4919 53.6555C48.1687 53.4437 48.8243 53.2397 49.4819 53.0337C49.3141 52.4985 49.1502 51.9729 48.9844 51.4473C48.3133 51.6572 47.6578 51.8612 46.9944 52.0691C47.1603 52.6005 47.3261 53.1241 47.4919 53.6555ZM51.1613 54.2831C51.1787 54.2793 51.1922 54.2793 51.1999 54.2735C51.9442 53.8095 52.6866 53.3436 53.4289 52.8777C53.4579 52.8604 53.4926 52.82 53.4868 52.8007C53.4424 52.6371 53.3885 52.4754 53.3383 52.3156C52.4725 52.5851 51.6357 52.8469 50.7931 53.1107C50.9203 53.5073 51.0399 53.8961 51.1613 54.2831ZM53.0086 60.1896C53.0356 60.1838 53.0491 60.1857 53.0568 60.1799C53.7992 59.7198 54.5396 59.2578 55.2781 58.7938C55.3148 58.7707 55.336 58.7053 55.3263 58.6706C55.2916 58.532 55.2434 58.3972 55.1991 58.2605C55.1643 58.1508 55.1296 58.0411 55.0911 57.9159C54.314 58.403 53.5697 58.8689 52.8293 59.3367C52.7984 59.356 52.7656 59.4022 52.7714 59.4234C52.8466 59.6813 52.9295 59.9354 53.0086 60.1896ZM53.6449 62.2245C53.6777 62.2149 53.697 62.2129 53.7085 62.2033C54.4432 61.7432 55.1759 61.285 55.9086 60.823C55.9395 60.8037 55.9742 60.7575 55.9684 60.7344C55.899 60.4899 55.8199 60.2473 55.7467 60.0125C55.7235 60.0105 55.7158 60.0086 55.7139 60.0105C54.9657 60.4783 54.2176 60.9462 53.4714 61.4159C53.4424 61.4332 53.4174 61.4814 53.4251 61.5045C53.4926 61.7451 53.5697 61.9858 53.6449 62.2245ZM52.6673 59.1038C52.6962 59.098 52.7097 59.0999 52.7194 59.0941C53.4598 58.6321 54.1983 58.1701 54.9368 57.7042C54.9677 57.6849 54.9966 57.6387 54.9908 57.6156C54.9233 57.3788 54.8481 57.1459 54.7691 56.8956C53.9978 57.3788 53.2438 57.8485 52.4938 58.3202C52.4687 58.3356 52.4455 58.378 52.4513 58.3992C52.5188 58.6359 52.594 58.8708 52.6673 59.1038ZM54.1771 54.9858C53.4 55.4748 52.6557 55.9407 51.9153 56.4104C51.8825 56.4316 51.8516 56.4836 51.8594 56.5086C51.9211 56.73 51.9924 56.9495 52.0618 57.167C52.0869 57.1613 52.0985 57.1613 52.1081 57.1555C52.8485 56.6934 53.5909 56.2314 54.3294 55.7674C54.3622 55.7462 54.395 55.6943 54.3873 55.6692C54.3236 55.4478 54.2523 55.2284 54.1771 54.9858ZM53.3171 61.1791C53.3499 61.1695 53.3692 61.1695 53.3807 61.1618C54.1154 60.7017 54.8481 60.2435 55.5808 59.7814C55.6136 59.7603 55.6445 59.7083 55.6387 59.6813C55.577 59.4619 55.5056 59.2443 55.4324 59.0094C54.663 59.4907 53.911 59.9605 53.1609 60.4321C53.132 60.4495 53.1089 60.4976 53.1146 60.5207C53.1763 60.7382 53.2477 60.9577 53.3171 61.1791ZM51.4583 55.2438C51.4853 55.2361 51.4988 55.2341 51.5065 55.2284C52.245 54.7644 52.9835 54.3024 53.722 53.8365C53.7529 53.8172 53.7914 53.771 53.7857 53.7498C53.724 53.5342 53.6545 53.3205 53.5832 53.0895C52.8081 53.5766 52.0638 54.0425 51.3233 54.5103C51.2886 54.5315 51.2597 54.5911 51.2674 54.62C51.3233 54.826 51.3908 55.0301 51.4583 55.2438ZM51.7514 56.1794C51.7764 56.1736 51.7899 56.1717 51.7977 56.1659C52.5381 55.7039 53.2805 55.2418 54.019 54.7779C54.0498 54.7586 54.0845 54.7124 54.0788 54.6912C54.019 54.4775 53.9496 54.2677 53.8782 54.0405C53.1031 54.5276 52.3549 54.9973 51.6087 55.469C51.5798 55.4883 51.5508 55.5345 51.5566 55.5557C51.6203 55.7674 51.6878 55.9734 51.7514 56.1794ZM54.4818 55.9811C53.7085 56.4643 52.9604 56.9322 52.2142 57.4C52.1872 57.4173 52.1544 57.4577 52.1602 57.477C52.218 57.6791 52.2836 57.8813 52.3511 58.0988C53.1243 57.6137 53.8724 57.1478 54.6187 56.678C54.6476 56.6607 54.6746 56.6126 54.6669 56.5876C54.6129 56.3912 54.5492 56.1948 54.4818 55.9811ZM54.7421 61.8645C54.7459 61.8703 54.7479 61.876 54.7517 61.8818C55.228 61.7336 55.7043 61.5834 56.1825 61.4352C56.14 61.3004 56.1015 61.1772 56.059 61.0424C55.6078 61.3235 55.174 61.595 54.7421 61.8645Z" fill="#141414"/>
<path d="M49.8363 52.9241C49.6686 52.3909 49.5047 51.8672 49.3389 51.3359C50.7291 50.9008 52.1117 50.4695 53.5058 50.0344C53.6716 50.5619 53.8355 51.0875 54.0033 51.6227C52.6169 52.0559 51.2362 52.4871 49.8363 52.9241Z" fill="white"/>
<path d="M53.853 49.9167C54.5241 49.7069 55.1816 49.5009 55.8507 49.293C56.0184 49.8262 56.1823 50.3537 56.352 50.8928C55.6906 51.0988 55.0292 51.3067 54.3544 51.5166C54.1905 50.9891 54.0227 50.4577 53.853 49.9167Z" fill="white"/>
<path d="M47.4916 53.6555C47.3258 53.1241 47.1619 52.6005 46.9941 52.0691C47.6575 51.8631 48.3131 51.6571 48.9841 51.4473C49.148 51.9728 49.3138 52.5003 49.4816 53.0336C48.824 53.2396 48.1684 53.4437 47.4916 53.6555Z" fill="white"/>
<path d="M51.1613 54.2832C51.0398 53.8962 50.9183 53.5093 50.7949 53.1108C51.6356 52.849 52.4744 52.5871 53.3402 52.3157C53.3903 52.4755 53.4443 52.6372 53.4887 52.8008C53.4945 52.8201 53.4597 52.8586 53.4308 52.8778C52.6884 53.3437 51.9461 53.8096 51.2018 54.2736C51.1921 54.2794 51.1786 54.2794 51.1613 54.2832Z" fill="white"/>
<path d="M53.0084 60.1897C52.9293 59.9356 52.8464 59.6814 52.7731 59.4254C52.7673 59.4042 52.8001 59.358 52.831 59.3388C53.5734 58.8709 54.3157 58.405 55.0928 57.918C55.1314 58.0431 55.1661 58.1528 55.2008 58.2626C55.2432 58.3993 55.2933 58.534 55.328 58.6726C55.3377 58.7073 55.3145 58.7728 55.2798 58.7959C54.5413 59.2598 53.8009 59.7219 53.0585 60.182C53.0489 60.1839 53.0354 60.1839 53.0084 60.1897Z" fill="white"/>
<path d="M53.6445 62.2245C53.5693 61.9839 53.4922 61.7452 53.4228 61.5045C53.4151 61.4814 53.4402 61.4333 53.4691 61.4159C54.2153 60.9462 54.9635 60.4784 55.7116 60.0106C55.7155 60.0086 55.7232 60.0106 55.7444 60.0125C55.8177 60.2493 55.8967 60.4899 55.9661 60.7344C55.9719 60.7556 55.9372 60.8037 55.9064 60.823C55.1736 61.285 54.4409 61.7452 53.7062 62.2034C53.6947 62.213 53.6754 62.2149 53.6445 62.2245Z" fill="white"/>
<path d="M52.667 59.1037C52.5938 58.8707 52.5186 58.6359 52.4491 58.3991C52.4434 58.3779 52.4665 58.3375 52.4916 58.3201C53.2416 57.8485 53.9956 57.3768 54.7669 56.8955C54.8459 57.1458 54.9211 57.3787 54.9886 57.6155C54.9944 57.6386 54.9655 57.6848 54.9346 57.7041C54.1961 58.1681 53.4576 58.6301 52.7172 59.0941C52.7095 59.0998 52.696 59.0998 52.667 59.1037Z" fill="white"/>
<path d="M54.1768 54.9858C54.252 55.2284 54.3234 55.4479 54.387 55.6693C54.3947 55.6943 54.3619 55.7482 54.3292 55.7675C53.5907 56.2314 52.8483 56.6935 52.1078 57.1555C52.1001 57.1613 52.0866 57.1613 52.0616 57.1671C51.9922 56.9476 51.9208 56.7301 51.8591 56.5087C51.8514 56.4817 51.8822 56.4297 51.915 56.4105C52.6555 55.9407 53.3998 55.4748 54.1768 54.9858Z" fill="white"/>
<path d="M53.3172 61.1792C53.2477 60.9597 53.1764 60.7402 53.1147 60.5188C53.107 60.4957 53.132 60.4476 53.161 60.4303C53.911 59.9586 54.6631 59.4889 55.4324 59.0076C55.5057 59.2424 55.577 59.46 55.6387 59.6795C55.6465 59.7064 55.6137 59.7584 55.5809 59.7796C54.8501 60.2416 54.1154 60.7017 53.3808 61.1599C53.3673 61.1676 53.348 61.1696 53.3172 61.1792Z" fill="white"/>
<path d="M51.4583 55.2437C51.3908 55.03 51.3233 54.8278 51.2674 54.6218C51.2597 54.591 51.2886 54.5333 51.3233 54.5121C52.0637 54.0424 52.8061 53.5784 53.5832 53.0913C53.6545 53.3223 53.7259 53.536 53.7856 53.7516C53.7914 53.7728 53.7548 53.819 53.722 53.8383C52.9854 54.3042 52.245 54.7662 51.5065 55.2302C51.4988 55.2321 51.4853 55.234 51.4583 55.2437Z" fill="white"/>
<path d="M51.7512 56.1794C51.6857 55.9734 51.6201 55.7655 51.5604 55.5576C51.5546 55.5345 51.5816 55.4883 51.6124 55.471C52.3586 54.9993 53.1068 54.5296 53.8819 54.0425C53.9533 54.2697 54.0208 54.4795 54.0825 54.6932C54.0883 54.7144 54.0536 54.7606 54.0227 54.7798C53.2842 55.2438 52.5418 55.7058 51.8014 56.1679C51.7898 56.1737 51.7763 56.1737 51.7512 56.1794Z" fill="white"/>
<path d="M54.4815 55.981C54.549 56.1947 54.6126 56.391 54.6685 56.5874C54.6743 56.6105 54.6492 56.6586 54.6203 56.6779C53.8741 57.1476 53.1278 57.6154 52.3527 58.0987C52.2852 57.8811 52.2197 57.6809 52.1618 57.4768C52.156 57.4576 52.1888 57.4171 52.2158 57.3998C52.962 56.932 53.7102 56.4642 54.4815 55.981Z" fill="white"/>
<path d="M54.7417 61.8645C55.1756 61.595 55.6094 61.3236 56.0587 61.0425C56.1011 61.1772 56.1397 61.3005 56.1821 61.4352C55.7039 61.5835 55.2276 61.7336 54.7513 61.8819C54.7475 61.8761 54.7436 61.8703 54.7417 61.8645Z" fill="white"/>
<path d="M69.6971 37.1084C71.6754 37.1123 73.2546 38.6948 73.2527 40.6738C73.2527 42.6395 71.6484 44.2335 69.6816 44.2277C67.7071 44.222 66.1221 42.6298 66.126 40.6584C66.1318 38.6851 67.7187 37.1046 69.6971 37.1084ZM72.8883 40.6758C72.8921 38.9046 71.4614 37.4684 69.6913 37.4646C67.9289 37.4607 66.4808 38.9085 66.4827 40.6719C66.4846 42.4258 67.9057 43.8504 69.6739 43.8716C71.4305 43.8928 72.8844 42.4469 72.8883 40.6758Z" fill="#141414"/>
<path d="M105.086 114.763C104.371 114.763 103.657 114.761 102.942 114.765C102.778 114.767 102.674 114.703 102.591 114.561C101.88 113.325 101.166 112.089 100.449 110.857C100.356 110.699 100.356 110.568 100.449 110.41C101.164 109.182 101.876 107.951 102.583 106.717C102.67 106.565 102.78 106.5 102.957 106.502C104.377 106.508 105.796 106.508 107.213 106.504C107.402 106.504 107.518 106.567 107.612 106.733C108.314 107.957 109.02 109.18 109.731 110.398C109.83 110.568 109.828 110.703 109.729 110.87C109.018 112.089 108.312 113.311 107.61 114.536C107.518 114.699 107.402 114.769 107.211 114.767C106.505 114.759 105.796 114.763 105.086 114.763ZM105.094 107.058C104.452 107.058 103.81 107.06 103.168 107.056C103.069 107.056 103.01 107.079 102.957 107.17C102.315 108.29 101.669 109.411 101.021 110.527C100.977 110.604 100.975 110.658 101.02 110.735C101.667 111.854 102.313 112.972 102.956 114.093C103.006 114.181 103.06 114.214 103.162 114.212C104.452 114.208 105.74 114.208 107.03 114.212C107.132 114.212 107.186 114.178 107.236 114.091C107.876 112.974 108.518 111.86 109.164 110.747C109.216 110.656 109.211 110.595 109.161 110.51C108.517 109.401 107.876 108.292 107.238 107.179C107.186 107.087 107.128 107.052 107.02 107.052C106.378 107.06 105.736 107.058 105.094 107.058Z" fill="#141414"/>
<path d="M105.1 108.267C106.415 108.269 107.466 109.322 107.464 110.639C107.464 111.946 106.397 113.007 105.088 113.003C103.775 112.999 102.722 111.941 102.724 110.63C102.728 109.315 103.785 108.263 105.1 108.267ZM107.223 110.637C107.225 109.459 106.274 108.504 105.096 108.502C103.923 108.5 102.961 109.463 102.963 110.633C102.965 111.8 103.91 112.747 105.086 112.761C106.253 112.778 107.219 111.815 107.223 110.637Z" fill="#141414"/>
<path d="M65.0348 118.521C63.7911 118.521 62.5455 118.515 61.3018 118.525C61.0145 118.527 60.8332 118.417 60.6925 118.17C59.4545 116.016 58.2128 113.864 56.9613 111.717C56.8013 111.444 56.8013 111.215 56.9613 110.941C58.207 108.802 59.4449 106.658 60.677 104.511C60.8294 104.247 61.0203 104.134 61.3288 104.136C63.8008 104.145 66.2708 104.147 68.7428 104.14C69.0706 104.138 69.2731 104.251 69.437 104.538C70.6576 106.671 71.8878 108.799 73.1276 110.92C73.2992 111.215 73.2973 111.45 73.1257 111.742C71.8858 113.864 70.6576 115.993 69.437 118.126C69.275 118.409 69.0745 118.53 68.7428 118.527C67.5049 118.513 66.2689 118.521 65.0348 118.521ZM65.0464 105.102C63.928 105.102 62.8097 105.106 61.6913 105.098C61.5197 105.096 61.4175 105.139 61.3269 105.297C60.2085 107.249 59.0824 109.199 57.9544 111.145C57.8773 111.278 57.8734 111.374 57.9505 111.509C59.0785 113.456 60.2027 115.406 61.323 117.358C61.4098 117.51 61.5043 117.568 61.6816 117.568C63.928 117.562 66.1725 117.562 68.4189 117.568C68.5982 117.568 68.6908 117.506 68.7775 117.356C69.892 115.412 71.0123 113.469 72.1365 111.53C72.2271 111.374 72.2156 111.267 72.1288 111.117C71.0085 109.186 69.892 107.253 68.7814 105.316C68.6888 105.156 68.5886 105.095 68.4015 105.096C67.2832 105.106 66.1648 105.102 65.0464 105.102Z" fill="#141414"/>
<path d="M65.056 107.207C67.3467 107.21 69.1747 109.045 69.1747 111.336C69.1728 113.612 67.3178 115.46 65.0387 115.452C62.7518 115.444 60.918 113.602 60.9219 111.319C60.9277 109.03 62.7653 107.201 65.056 107.207ZM68.7524 111.334C68.7563 109.282 67.1019 107.62 65.0502 107.617C63.0082 107.613 61.3326 109.288 61.3345 111.33C61.3365 113.361 62.9832 115.011 65.0309 115.036C67.0633 115.061 68.7486 113.386 68.7524 111.334Z" fill="#141414"/>
<path d="M144.925 66.5004C145.181 66.8681 145.399 67.2493 145.619 67.6363C147.499 67.6421 149.389 67.6478 151.301 67.6536C151.311 67.2031 151.321 66.8527 151.328 66.4792C149.188 66.4869 147.061 66.4946 144.925 66.5004Z" fill="#141414"/>
<path d="M144.09 65.5339C145.179 65.5436 146.273 65.5551 147.356 65.5647C147.601 65.0218 147.497 64.8698 147.032 64.8736C145.787 64.8852 144.541 64.8832 143.297 64.8813C143.571 65.0854 143.837 65.2991 144.09 65.5339Z" fill="#141414"/>
<path d="M139.945 14.8689C139.945 30.305 139.943 45.7335 139.943 61.16C139.964 61.1793 139.987 61.1966 140.008 61.2158C140.469 61.5142 140.863 61.882 141.19 62.3132C141.192 62.1996 141.194 62.088 141.198 61.9744C143.232 62.0052 145.334 62.036 147.475 62.0687C147.484 61.7568 147.488 61.5989 147.494 61.4161C145.373 61.4295 143.283 61.443 141.217 61.4546C141.235 60.4284 141.25 59.4832 141.266 58.4898C143.24 58.5052 145.344 58.5206 147.54 58.5379C147.538 58.2742 147.536 58.1182 147.536 57.9045C145.365 57.9199 143.281 57.9353 141.162 57.9488C141.212 57.2596 141.254 56.6512 141.302 55.9909C144.509 56.0101 147.891 56.0313 151.354 56.0525C151.329 55.5731 151.31 55.2401 151.29 54.8666C147.93 54.882 144.563 54.8955 141.1 54.9109C141.152 54.4969 141.189 54.1908 141.241 53.7788C142.617 53.7923 144.085 53.8077 145.554 53.8212C146.067 53.8251 146.58 53.8019 147.091 53.8327C147.505 53.8559 147.571 53.671 147.469 53.2995C145.377 53.3168 143.273 53.3341 141.175 53.3534C141.196 52.2965 141.214 51.3647 141.233 50.4155C143.221 50.4425 145.321 50.4714 147.467 50.5003C147.488 50.1595 147.496 50.0036 147.511 49.7417C145.371 49.7668 143.265 49.7918 141.192 49.8168C141.189 48.7907 141.185 47.8627 141.181 46.9079C143.242 46.9194 145.346 46.931 147.554 46.9444C147.548 46.6634 147.546 46.5055 147.54 46.3014C145.367 46.3168 143.283 46.3303 141.127 46.3438C141.196 45.6507 141.258 45.0443 141.318 44.4398C144.501 44.4552 147.881 44.4686 151.343 44.486C151.267 43.9816 151.217 43.6504 151.159 43.2596C147.924 43.277 144.546 43.2962 141.048 43.3155C141.092 42.8746 141.123 42.5839 141.158 42.2528C143.24 42.2682 145.342 42.2836 147.409 42.299C147.621 41.7253 147.428 41.6386 147.012 41.6425C145.07 41.6636 143.13 41.6559 141.202 41.6598C141.227 40.6779 141.252 39.7327 141.277 38.7374C143.252 38.7547 145.357 38.772 147.496 38.7913C147.49 38.5294 147.486 38.3696 147.48 38.1637C145.357 38.1848 143.273 38.2079 141.217 38.2291C141.229 37.1857 141.241 36.2423 141.252 35.2104C143.094 35.22 145.033 35.2297 146.971 35.2412C147.313 35.2431 147.663 35.2605 147.426 34.6791C145.357 34.7022 143.269 34.7233 141.171 34.7464C141.185 34.0207 141.194 33.393 141.206 32.7135C144.526 32.7212 147.895 32.7289 151.364 32.7385C151.339 32.3592 151.316 32.0262 151.292 31.6777C147.924 31.695 144.559 31.7104 141.077 31.7278C141.152 31.2753 141.204 30.9692 141.26 30.6304C143.24 30.6497 145.344 30.6708 147.409 30.692C147.623 30.1299 147.444 30.022 147.023 30.0259C145.272 30.0413 143.522 30.0336 141.771 30.0317C141.563 30.0317 141.352 30.0201 141.169 30.0143C141.16 29.0383 141.15 28.1065 141.138 27.1323C143.25 27.1554 145.355 27.1766 147.5 27.1997C147.486 26.9148 147.478 26.7531 147.469 26.5471C145.344 26.5548 143.257 26.5606 141.204 26.5683C141.206 25.5845 141.208 24.6546 141.21 23.6651C143.234 23.6997 145.332 23.7363 147.38 23.771C147.633 23.1241 147.386 23.0586 146.998 23.0606C145.057 23.074 143.117 23.076 141.113 23.0817C141.162 22.4253 141.208 21.8169 141.26 21.1219C144.515 21.1469 147.893 21.1739 151.348 21.2028C151.323 20.7195 151.306 20.3865 151.289 20.0496C147.926 20.0573 144.561 20.065 141.254 20.0727C141.266 18.7116 141.275 17.4467 141.285 16.2377C150.587 16.2416 160.039 16.2435 169.506 16.2473C169.505 57.0959 169.503 98.0119 169.499 138.905C169.416 138.905 169.331 138.905 169.248 138.905C169.501 139.321 169.732 139.748 169.94 140.181C170.197 140.181 170.455 140.181 170.712 140.181C170.714 98.4432 170.717 56.6435 170.719 14.8727C160.484 14.8708 150.178 14.8689 139.945 14.8689Z" fill="#141414"/>
<path d="M49.1285 30.0085C49.3715 30.0182 49.6144 30.0316 49.8593 30.0374C50.2662 30.049 50.673 30.0547 51.0914 30.0644C51.0857 30.4109 51.0779 30.7497 51.0722 31.0751C51.3787 31.2079 51.6738 31.3388 51.9881 31.4755C52.2175 31.2561 52.4643 31.0212 52.7189 30.7767C53.1797 31.2561 53.6348 31.7297 54.0995 32.2129C54.0763 32.2398 54.059 32.2668 54.0358 32.288C53.8353 32.4805 53.6348 32.6749 53.4323 32.8636C53.3783 32.9137 53.3706 32.9522 53.4015 33.0234C53.5037 33.264 53.5981 33.5066 53.6868 33.753C53.7138 33.8281 53.7447 33.857 53.8237 33.857C54.0898 33.857 54.3559 33.8647 54.622 33.8705C54.6625 33.8705 54.703 33.8762 54.7532 33.8801C54.7397 34.5462 54.7262 35.2027 54.7127 35.8727C54.4041 35.8669 54.1053 35.865 53.8083 35.8515C53.7061 35.8476 53.6695 35.8804 53.6328 35.9747C53.5345 36.2384 53.4169 36.4945 53.3012 36.7698C53.521 36.9989 53.7563 37.2453 53.9992 37.4975C53.5172 37.9596 53.0409 38.4158 52.5569 38.8817C52.3795 38.6969 52.206 38.5198 52.0343 38.3408C51.8492 38.1482 51.8512 38.1521 51.6101 38.2503C51.3865 38.3408 51.1609 38.4216 50.9218 38.5121C50.914 38.8394 50.9063 39.1782 50.8986 39.5286C50.2314 39.5151 49.5739 39.5016 48.899 39.4882C48.9029 39.3014 48.9068 39.1205 48.9106 38.9395C48.9145 38.7855 48.9704 38.5968 48.9029 38.489C48.8373 38.385 48.6387 38.3658 48.4999 38.3022C48.3379 38.2291 48.1779 38.1482 48.0121 38.0674C47.7691 38.2984 47.5242 38.5333 47.2716 38.7739C46.8088 38.2907 46.3518 37.8152 45.8852 37.332C46.1012 37.124 46.3094 36.918 46.5273 36.7197C46.6064 36.6466 46.6218 36.5965 46.5717 36.4906C46.4656 36.2654 46.3846 36.0286 46.3036 35.7937C46.2786 35.7225 46.2516 35.6955 46.1764 35.6936C45.8698 35.6917 45.5632 35.6821 45.2393 35.6763C45.2528 35.0102 45.2663 34.3518 45.2798 33.678C45.4571 33.6818 45.6268 33.6837 45.7946 33.6876C45.9354 33.6895 46.078 33.6895 46.2188 33.6972C46.2863 33.7011 46.3171 33.6818 46.3441 33.6144C46.4444 33.368 46.5485 33.1254 46.6623 32.8848C46.6951 32.8155 46.6912 32.777 46.6392 32.725C46.4251 32.5055 46.213 32.2841 45.9913 32.0531C46.4733 31.591 46.9496 31.1348 47.4336 30.6689C47.6168 30.8576 47.7942 31.0424 47.9716 31.2272C48.1451 31.4062 48.1412 31.4005 48.3746 31.3023C48.5732 31.2195 48.7814 31.154 48.982 31.077C49.0167 31.0635 49.0629 31.0231 49.0649 30.9942C49.0745 30.6708 49.0764 30.3474 49.0803 30.0239C49.0957 30.0182 49.1111 30.0143 49.1285 30.0085ZM51.7355 34.217C51.4289 33.2544 50.3953 32.7231 49.4293 33.0311C48.4729 33.3372 47.9446 34.3652 48.2454 35.3278C48.5462 36.2885 49.5836 36.8237 50.5496 36.5195C51.5137 36.2134 52.044 35.1834 51.7355 34.217Z" fill="#4B49BF"/>
<path d="M116.651 26.3604C116.894 26.37 117.137 26.3835 117.382 26.3892C117.789 26.4008 118.196 26.4066 118.614 26.4162C118.609 26.7627 118.601 27.1015 118.595 27.4269C118.902 27.5597 119.197 27.6907 119.511 27.8273C119.74 27.6079 119.987 27.373 120.242 27.1285C120.703 27.6079 121.158 28.0815 121.622 28.5647C121.599 28.5916 121.582 28.6186 121.559 28.6398C121.358 28.8323 121.158 29.0267 120.955 29.2154C120.901 29.2655 120.894 29.304 120.924 29.3752C121.027 29.6158 121.121 29.8584 121.21 30.1048C121.237 30.1799 121.268 30.2088 121.347 30.2088C121.613 30.2088 121.879 30.2165 122.145 30.2223C122.185 30.2223 122.226 30.2281 122.276 30.2319C122.263 30.898 122.249 31.5545 122.236 32.2245C121.927 32.2187 121.628 32.2168 121.331 32.2033C121.229 32.1994 121.192 32.2322 121.156 32.3265C121.057 32.5903 120.94 32.8463 120.824 33.1216C121.044 33.3507 121.279 33.5971 121.522 33.8493C121.04 34.3114 120.564 34.7676 120.08 35.2335C119.902 35.0487 119.729 34.8716 119.557 34.6926C119.372 34.5 119.374 34.5039 119.133 34.6021C118.909 34.6926 118.684 34.7734 118.445 34.8639C118.437 35.1912 118.429 35.53 118.422 35.8804C117.754 35.8669 117.097 35.8534 116.422 35.84C116.426 35.6532 116.43 35.4723 116.434 35.2913C116.437 35.1373 116.493 34.9486 116.426 34.8408C116.36 34.7368 116.162 34.7176 116.023 34.6541C115.861 34.5809 115.701 34.5 115.535 34.4192C115.292 34.6502 115.047 34.8851 114.795 35.1257C114.332 34.6425 113.875 34.167 113.408 33.6838C113.624 33.4758 113.832 33.2698 114.05 33.0716C114.129 32.9984 114.145 32.9483 114.095 32.8425C113.989 32.6172 113.908 32.3804 113.827 32.1455C113.802 32.0743 113.775 32.0474 113.699 32.0454C113.393 32.0435 113.086 32.0339 112.762 32.0281C112.776 31.362 112.789 30.7036 112.803 30.0298C112.98 30.0336 113.15 30.0355 113.318 30.0394C113.458 30.0413 113.601 30.0413 113.742 30.049C113.809 30.0529 113.84 30.0336 113.867 29.9662C113.967 29.7198 114.071 29.4772 114.185 29.2366C114.218 29.1673 114.214 29.1288 114.162 29.0768C113.948 28.8573 113.736 28.6359 113.514 28.4049C113.996 27.9429 114.473 27.4866 114.957 27.0207C115.14 27.2094 115.317 27.3942 115.495 27.579C115.668 27.758 115.664 27.7523 115.898 27.6541C116.096 27.5713 116.304 27.5058 116.505 27.4288C116.54 27.4154 116.586 27.3749 116.588 27.346C116.597 27.0226 116.599 26.6992 116.603 26.3758C116.621 26.37 116.636 26.3661 116.651 26.3604ZM119.26 30.5688C118.954 29.6062 117.92 29.0749 116.954 29.3829C115.998 29.689 115.469 30.717 115.77 31.6796C116.071 32.6403 117.108 33.1755 118.074 32.8713C119.039 32.5652 119.569 31.5353 119.26 30.5688Z" fill="#4B49BF"/>
<path d="M85.1752 94.7373C85.5069 94.7508 85.8366 94.7681 86.1683 94.7777C86.7217 94.7931 87.2751 94.8028 87.8439 94.8143C87.8342 95.2879 87.8265 95.748 87.8188 96.1908C88.2353 96.3737 88.6383 96.5489 89.0645 96.7356C89.3788 96.4353 89.7123 96.1177 90.0594 95.7846C90.6861 96.4353 91.307 97.0822 91.9375 97.7387C91.9067 97.7752 91.8816 97.8099 91.8507 97.8407C91.5769 98.1025 91.3051 98.3663 91.0293 98.6242C90.956 98.6916 90.9464 98.7436 90.9869 98.8399C91.1257 99.1672 91.2549 99.4983 91.3745 99.8333C91.4111 99.9372 91.4535 99.9738 91.5615 99.9738C91.924 99.9738 92.2846 99.9854 92.6471 99.9931C92.703 99.995 92.757 100.001 92.8264 100.007C92.8071 100.911 92.7898 101.808 92.7705 102.719C92.3502 102.709 91.9452 102.708 91.5403 102.69C91.4015 102.684 91.3513 102.731 91.3031 102.858C91.1682 103.216 91.01 103.566 90.85 103.94C91.1489 104.253 91.469 104.587 91.7987 104.931C91.1431 105.561 90.4952 106.181 89.8338 106.814C89.5909 106.562 89.3575 106.321 89.1223 106.077C88.8697 105.813 88.8736 105.819 88.5458 105.953C88.243 106.077 87.9326 106.186 87.6086 106.31C87.599 106.754 87.5874 107.216 87.5778 107.694C86.6715 107.675 85.7749 107.657 84.8551 107.638C84.8609 107.382 84.8667 107.137 84.8706 106.891C84.8744 106.681 84.9535 106.425 84.859 106.277C84.7684 106.134 84.4984 106.109 84.3114 106.025C84.0896 105.925 83.8737 105.815 83.6461 105.705C83.3164 106.021 82.9828 106.34 82.6396 106.668C82.0091 106.011 81.3862 105.364 80.7538 104.704C81.0469 104.423 81.3323 104.14 81.6273 103.87C81.7353 103.772 81.7545 103.703 81.687 103.56C81.5444 103.254 81.4325 102.933 81.3226 102.613C81.2898 102.517 81.2513 102.478 81.1491 102.478C80.7306 102.475 80.3141 102.463 79.8745 102.455C79.8938 101.549 79.9111 100.653 79.9304 99.7351C80.1715 99.7389 80.4028 99.7428 80.6323 99.7466C80.8251 99.7505 81.0179 99.7505 81.2088 99.7601C81.3014 99.764 81.3438 99.7389 81.3805 99.6465C81.5154 99.3115 81.6601 98.9804 81.8143 98.6531C81.8587 98.5588 81.8548 98.5068 81.7835 98.4356C81.4904 98.1372 81.2031 97.8349 80.9023 97.5211C81.5598 96.8916 82.2057 96.2717 82.8671 95.6383C83.1159 95.8963 83.3588 96.1465 83.5999 96.3987C83.8351 96.6432 83.8312 96.6355 84.1494 96.5008C84.4193 96.3872 84.7028 96.3006 84.9766 96.1927C85.0229 96.1754 85.0884 96.1196 85.0884 96.0792C85.1019 95.6402 85.1039 95.1993 85.1097 94.7585C85.1309 94.7508 85.154 94.7431 85.1752 94.7373ZM88.7251 100.465C88.3067 99.1537 86.8991 98.4298 85.5859 98.8514C84.2844 99.2673 83.5632 100.667 83.9739 101.978C84.3846 103.287 85.7942 104.015 87.1092 103.599C88.4224 103.181 89.1435 101.782 88.7251 100.465Z" fill="#4B49BF"/>
<path d="M109.068 124.054C109.399 124.067 109.729 124.085 110.061 124.094C110.614 124.11 111.168 124.119 111.736 124.131C111.727 124.605 111.719 125.065 111.711 125.507C112.128 125.69 112.531 125.866 112.957 126.052C113.271 125.752 113.605 125.434 113.952 125.101C114.579 125.752 115.2 126.399 115.83 127.055C115.799 127.092 115.774 127.127 115.743 127.157C115.47 127.419 115.198 127.683 114.922 127.941C114.849 128.008 114.839 128.06 114.879 128.157C115.018 128.484 115.148 128.815 115.267 129.15C115.304 129.254 115.346 129.29 115.454 129.29C115.817 129.29 116.177 129.302 116.54 129.31C116.596 129.312 116.65 129.317 116.719 129.323C116.7 130.228 116.682 131.125 116.663 132.036C116.243 132.026 115.838 132.024 115.433 132.007C115.294 132.001 115.244 132.047 115.196 132.174C115.061 132.532 114.903 132.883 114.743 133.256C115.041 133.57 115.362 133.903 115.691 134.248C115.036 134.877 114.388 135.497 113.726 136.131C113.483 135.878 113.25 135.638 113.015 135.393C112.762 135.13 112.766 135.135 112.438 135.27C112.136 135.393 111.825 135.503 111.501 135.626C111.492 136.071 111.48 136.533 111.47 137.01C110.564 136.991 109.667 136.974 108.748 136.955C108.753 136.699 108.759 136.454 108.763 136.208C108.767 135.998 108.846 135.742 108.752 135.594C108.661 135.451 108.391 135.426 108.204 135.341C107.982 135.241 107.766 135.131 107.539 135.022C107.209 135.337 106.875 135.657 106.532 135.984C105.902 135.328 105.279 134.681 104.646 134.021C104.939 133.74 105.225 133.457 105.52 133.187C105.628 133.089 105.647 133.02 105.58 132.877C105.437 132.571 105.325 132.249 105.215 131.93C105.182 131.834 105.144 131.795 105.042 131.795C104.623 131.791 104.207 131.78 103.767 131.772C103.786 130.865 103.804 129.97 103.823 129.052C104.064 129.056 104.295 129.059 104.525 129.063C104.718 129.067 104.911 129.067 105.101 129.077C105.194 129.081 105.236 129.056 105.273 128.963C105.408 128.628 105.553 128.297 105.707 127.97C105.751 127.875 105.747 127.823 105.676 127.752C105.383 127.454 105.096 127.152 104.795 126.838C105.452 126.208 106.098 125.588 106.76 124.955C107.008 125.213 107.251 125.463 107.492 125.715C107.728 125.96 107.724 125.952 108.042 125.817C108.312 125.704 108.595 125.617 108.869 125.509C108.915 125.492 108.981 125.436 108.981 125.396C108.995 124.957 108.996 124.516 109.002 124.075C109.025 124.069 109.047 124.062 109.068 124.054ZM112.618 129.783C112.199 128.472 110.792 127.748 109.479 128.17C108.177 128.586 107.456 129.985 107.867 131.296C108.277 132.606 109.687 133.333 111.002 132.918C112.315 132.5 113.038 131.1 112.618 129.783Z" fill="#4B49BF"/>
<path d="M72.3797 69.3267C73.0566 69.3536 73.7334 69.3902 74.4102 69.4075C75.5401 69.4383 76.6701 69.4576 77.8366 69.4826C77.8193 70.449 77.8019 71.3905 77.7846 72.2953C78.6349 72.6669 79.4583 73.0269 80.3298 73.408C80.97 72.7958 81.6526 72.1451 82.3641 71.4655C83.6445 72.7958 84.9132 74.1165 86.2032 75.4584C86.1396 75.5335 86.0875 75.6066 86.0258 75.6663C85.4686 76.2034 84.9132 76.7425 84.3463 77.27C84.1979 77.4086 84.1747 77.5164 84.2596 77.7128C84.543 78.3808 84.8091 79.0585 85.0501 79.7438C85.1253 79.9556 85.2102 80.0307 85.4339 80.0307C86.1724 80.0307 86.9128 80.0538 87.6513 80.0692C87.7632 80.0711 87.8769 80.0846 88.0177 80.0942C87.9791 81.9443 87.9425 83.7752 87.9039 85.6368C87.0458 85.6195 86.2167 85.6137 85.3895 85.5771C85.1061 85.5637 85.0019 85.6599 84.9036 85.9218C84.6279 86.6533 84.3039 87.3676 83.98 88.1338C84.5931 88.7729 85.2449 89.4545 85.9178 90.1572C84.5758 91.4432 83.255 92.71 81.9033 94.0056C81.4077 93.4916 80.9276 92.9968 80.4513 92.5001C79.9345 91.963 79.9423 91.9726 79.2732 92.246C78.6542 92.5001 78.0217 92.7215 77.3604 92.9718C77.3391 93.8824 77.3179 94.8257 77.2948 95.7999C75.4418 95.7614 73.61 95.7248 71.7319 95.6863C71.7434 95.1646 71.755 94.6621 71.7646 94.1596C71.7724 93.7322 71.9324 93.2086 71.7415 92.9063C71.5564 92.6156 71.0049 92.5636 70.6212 92.3884C70.17 92.1825 69.7265 91.9591 69.2618 91.7358C68.5869 92.3807 67.9043 93.0315 67.2044 93.7014C65.9144 92.3596 64.6437 91.037 63.3498 89.6913C63.9495 89.1156 64.5299 88.5381 65.1354 87.9875C65.3571 87.7853 65.3957 87.6448 65.2588 87.3522C64.9657 86.7265 64.7382 86.07 64.5126 85.4154C64.4451 85.2171 64.368 85.1401 64.1578 85.1401C63.3036 85.1344 62.4513 85.1112 61.5527 85.092C61.5913 83.238 61.6279 81.4091 61.6646 79.5359C62.1582 79.5455 62.6287 79.5532 63.0972 79.5609C63.4906 79.5686 63.884 79.5686 64.2754 79.5879C64.4644 79.5975 64.5511 79.5436 64.6263 79.3549C64.9021 78.6715 65.1971 77.9919 65.5133 77.3258C65.6039 77.1333 65.5962 77.0274 65.4516 76.8811C64.8539 76.2727 64.2677 75.6547 63.6506 75.0117C64.9927 73.7257 66.3135 72.457 67.6652 71.1633C68.1743 71.6908 68.6679 72.2029 69.1635 72.715C69.6455 73.2155 69.6378 73.1982 70.2857 72.9248C70.8391 72.6919 71.4156 72.5148 71.9748 72.2972C72.0693 72.2606 72.2023 72.1471 72.2043 72.0662C72.2313 71.1671 72.2371 70.2681 72.2467 69.369C72.291 69.3555 72.3354 69.3401 72.3797 69.3267ZM79.6318 81.0299C78.7776 78.3519 75.9026 76.8734 73.2166 77.732C70.5595 78.581 69.0844 81.4399 69.9251 84.1198C70.7639 86.7939 73.6447 88.282 76.3326 87.433C79.0148 86.584 80.4899 83.7213 79.6318 81.0299Z" fill="#4B49BF"/>
<path d="M61.9169 130.532C62.2292 130.546 62.5416 130.561 62.8559 130.571C63.3785 130.584 63.901 130.594 64.439 130.605C64.4313 131.052 64.4236 131.487 64.4159 131.905C64.8092 132.076 65.1891 132.244 65.5921 132.419C65.889 132.136 66.2033 131.836 66.533 131.52C67.125 132.136 67.7112 132.746 68.307 133.366C68.2781 133.401 68.253 133.433 68.2241 133.462C67.9657 133.711 67.7093 133.959 67.447 134.204C67.3776 134.267 67.368 134.317 67.4065 134.408C67.5377 134.718 67.6611 135.029 67.7729 135.347C67.8076 135.445 67.8462 135.48 67.9503 135.48C68.2916 135.48 68.6348 135.49 68.9761 135.497C69.0282 135.499 69.0802 135.505 69.1458 135.509C69.1284 136.364 69.1111 137.211 69.0937 138.071C68.6965 138.064 68.3147 138.062 67.931 138.044C67.7999 138.039 67.7517 138.083 67.7073 138.204C67.5801 138.543 67.4297 138.872 67.2793 139.226C67.5627 139.523 67.8635 139.837 68.1759 140.162C67.555 140.757 66.9438 141.342 66.3209 141.941C66.0915 141.704 65.8697 141.475 65.6499 141.244C65.4108 140.996 65.4147 141.001 65.1062 141.127C64.8189 141.244 64.5277 141.346 64.2211 141.462C64.2115 141.881 64.2018 142.318 64.1903 142.769C63.3341 142.751 62.4857 142.734 61.618 142.717C61.6238 142.476 61.6276 142.243 61.6334 142.01C61.6373 141.812 61.7105 141.571 61.6218 141.431C61.537 141.296 61.2806 141.273 61.1051 141.192C60.8968 141.098 60.6905 140.994 60.4765 140.89C60.1641 141.188 59.8498 141.488 59.5259 141.798C58.93 141.179 58.3419 140.566 57.7442 139.944C58.0218 139.679 58.2899 139.411 58.5695 139.157C58.6717 139.065 58.6909 138.999 58.6273 138.864C58.4923 138.576 58.3863 138.271 58.2822 137.969C58.2513 137.877 58.2147 137.842 58.1183 137.842C57.723 137.84 57.3296 137.829 56.915 137.821C56.9324 136.964 56.9497 136.119 56.9671 135.253C57.1966 135.257 57.4125 135.26 57.6285 135.264C57.8097 135.268 57.991 135.268 58.1722 135.278C58.259 135.282 58.2995 135.257 58.3342 135.17C58.4615 134.854 58.5984 134.54 58.7449 134.232C58.7873 134.144 58.7835 134.094 58.716 134.026C58.4403 133.745 58.1684 133.459 57.883 133.162C58.5039 132.567 59.1152 131.982 59.738 131.383C59.9732 131.628 60.2027 131.864 60.4302 132.101C60.6539 132.332 60.65 132.325 60.9489 132.199C61.2054 132.092 61.4714 132.011 61.7298 131.909C61.7742 131.891 61.834 131.839 61.8359 131.803C61.8494 131.387 61.8513 130.971 61.8552 130.555C61.8764 130.546 61.8976 130.54 61.9169 130.532ZM65.2701 135.942C64.8748 134.704 63.5462 134.021 62.3044 134.417C61.0762 134.81 60.3955 136.133 60.7831 137.37C61.1706 138.606 62.5031 139.296 63.7448 138.901C64.9847 138.51 65.6673 137.188 65.2701 135.942Z" fill="#4B49BF"/>
<path d="M13.8596 127.498L5.20768 118.267L5.19611 118.255C5.18454 118.243 4.02568 117.119 3.0365 115.325C2.13216 113.687 1.18347 111.134 1.80629 108.279L6.86596 86.0775C6.9026 85.9542 7.38658 84.339 8.34877 82.6468C9.37844 80.8332 11.0348 79.4433 13.0132 78.7329L27.9299 73.3712C27.9531 73.2403 27.982 73.1094 28.0186 72.9804C28.0476 72.8726 28.0842 72.7648 28.1266 72.657L12.8088 78.163C10.6954 78.9235 8.92338 80.4097 7.82236 82.3484C6.78883 84.1657 6.30292 85.8484 6.28171 85.9177L6.27978 85.9254L1.21432 108.146V108.148C0.921229 109.495 0.925086 110.889 1.23167 112.293C1.47463 113.409 1.90655 114.534 2.51587 115.635C3.52434 117.456 4.66778 118.586 4.7719 118.686L13.9175 128.443L14.2453 128C14.0987 127.842 13.9773 127.667 13.8789 127.477L13.8596 127.498Z" fill="#141414"/>
<path d="M23.7646 111.309C20.2244 110.06 17.9066 106.669 17.9973 102.869L18.2595 91.7974V91.7858V91.7743C18.1535 89.7451 18.5507 88.6343 18.9016 88.0587C19.2603 87.4754 19.6305 87.3252 19.6652 87.3117L27.893 84.7936C27.8544 84.5587 27.9103 84.3142 28.053 84.1121L19.4801 86.7361C19.3952 86.763 17.4284 87.4426 17.654 91.7935L17.3918 102.854C17.3455 104.831 17.9066 106.739 19.0173 108.369C20.1338 110.01 21.7053 111.223 23.5641 111.879C24.1021 112.07 24.6304 112.199 25.1433 112.268L25.1124 112.31C25.2763 112.299 25.4402 112.301 25.6003 112.322C25.6851 112.322 25.768 112.328 25.849 112.335L26.2887 111.74L25.7218 111.713C25.0989 111.685 24.4414 111.548 23.7646 111.309Z" fill="#141414"/>
<path d="M138.489 156.295C138.489 158.309 136.848 159.947 134.831 159.947H50.0947C50.0947 159.951 50.0947 159.953 50.0947 159.957C50.1391 160.155 50.1719 160.353 50.1931 160.553H134.831C137.183 160.553 139.096 158.644 139.096 156.295V156.202C138.886 155.914 138.683 155.619 138.491 155.317V156.295H138.489Z" fill="#141414"/>
<path d="M61.304 12.7625H32.045C29.6887 12.7625 27.7798 15.8177 27.7798 19.5853V111.892C27.9283 111.821 28.0825 111.784 28.2426 111.783C28.2908 111.765 28.337 111.752 28.3852 111.738V19.5834C28.3852 16.351 30.0242 13.7308 32.0431 13.7308H60.4517C60.6927 13.3958 60.9743 13.0378 61.304 12.7625Z" fill="#141414"/>
<path d="M134.85 12.7625H105.699C105.79 12.8337 105.877 12.9107 105.952 12.9935C106.154 13.2149 106.283 13.4613 106.359 13.7327H134.848C136.869 13.7327 138.506 16.3529 138.506 19.5853V59.9488C138.716 60.0604 138.917 60.3223 139.112 60.4744V19.5834C139.115 15.8158 137.206 12.7625 134.85 12.7625Z" fill="#141414"/>
<path d="M124.041 18.5132H108.667C108.744 18.6017 108.814 18.6961 108.869 18.802C108.925 18.9059 108.962 19.0137 108.983 19.1196H124.041C128.129 19.1196 131.455 22.4406 131.455 26.522V57.2345C131.594 57.2075 131.736 57.1921 131.879 57.1863C131.941 57.1844 132 57.1844 132.062 57.1883V26.522C132.062 22.1056 128.464 18.5132 124.041 18.5132Z" fill="#141414"/>
<path d="M57.5703 19.0657C57.5414 18.8578 57.5819 18.671 57.6706 18.5132H43.178C38.7546 18.5132 35.1566 22.1056 35.1566 26.522L34.6514 82.7932C34.8519 82.7586 35.3532 77.9976 35.5403 77.9899C35.548 77.9899 35.7562 70.2757 35.764 70.2757V26.522C35.764 22.4406 39.0901 19.1196 43.178 19.1196H57.5799C57.5761 19.1023 57.5722 19.083 57.5703 19.0657Z" fill="#141414"/>
<path d="M131.455 81.7441V92.5906C131.657 92.581 131.86 92.5945 132.06 92.6349V81.8269C131.86 81.8269 131.657 81.798 131.455 81.7441Z" fill="#141414"/>
<path d="M131.783 142.647C131.675 142.586 131.563 142.511 131.455 142.43V145.4C131.455 149.482 128.129 152.803 124.041 152.803H52.0273C51.9848 153.012 51.9193 153.215 51.8325 153.407H124.041C128.464 153.407 132.062 149.815 132.062 145.398V142.77C131.95 142.726 131.827 142.672 131.783 142.647Z" fill="#141414"/>
<path d="M109.833 21.7031H56.5967L56.6044 21.3932C56.6063 21.3393 56.641 20.061 57.1848 18.3033C57.6842 16.6823 58.7293 14.3335 60.8696 12.3564C63.9799 9.48206 68.4765 8.15561 74.24 8.40973C74.2728 7.8418 74.4174 6.60198 75.0421 5.24665C75.5358 4.17817 76.2261 3.26179 77.0957 2.52059C78.1794 1.59842 79.5407 0.949636 81.1411 0.595401C82.487 0.296997 83.9158 0.298923 85.2714 0.597326C86.8776 0.951561 88.2409 1.59842 89.3264 2.52059C90.198 3.26179 90.8883 4.17817 91.3819 5.24665C92.0067 6.60198 92.1513 7.83988 92.1822 8.40781C97.9437 8.15369 102.442 9.48014 105.554 12.3544C107.697 14.3316 108.744 16.6803 109.245 18.3013C109.789 20.059 109.825 21.3393 109.827 21.3932L109.833 21.7031ZM57.2311 21.0967H109.199C109.156 20.6231 109.027 19.6471 108.657 18.4573C108.177 16.9114 107.174 14.6724 105.134 12.7934C102.091 9.98839 97.639 8.72161 91.9006 9.02964L91.5728 9.04697L91.5805 8.71969C91.5805 8.69466 91.5998 7.16221 90.817 5.47768C89.7719 3.23098 87.861 1.78902 85.1364 1.18836C83.8657 0.907281 82.5275 0.907282 81.2684 1.18643C78.5419 1.78902 76.631 3.24061 75.5897 5.50078C74.8107 7.18917 74.8339 8.70621 74.8339 8.72161L74.8416 9.04697L74.5157 9.02964C68.7792 8.72161 64.327 9.98839 61.2861 12.7934C59.248 14.6743 58.2492 16.9114 57.769 18.4573C57.4007 19.6471 57.2735 20.6231 57.2311 21.0967ZM83.428 11.7923C81.1874 11.7923 79.3652 9.97299 79.3652 7.73592C79.3652 5.49885 81.1874 3.67955 83.428 3.67955C85.6686 3.67955 87.4908 5.49885 87.4908 7.73592C87.4908 9.97299 85.6686 11.7923 83.428 11.7923ZM83.428 4.28598C81.5229 4.28598 79.9707 5.83383 79.9707 7.73784C79.9707 9.64185 81.521 11.1897 83.428 11.1897C85.3331 11.1897 86.8853 9.64185 86.8853 7.73784C86.8853 5.83383 85.3331 4.28598 83.428 4.28598Z" fill="#141414"/>
<path d="M50.6005 186.628H14.5098L14.4751 155.484L50.585 155.448L50.6005 186.628ZM15.1153 186.033H49.9931L49.9796 156.039L33.7227 156.056L31.2603 156.058L15.0825 156.075L15.1153 186.033Z" fill="#141414"/>
<path d="M34.0599 186.628H14.4961L14.4614 155.508L34.0252 155.487V155.8L34.0599 186.628ZM15.1016 186.035H33.4526L33.4198 156.081L15.0688 156.101L15.1016 186.035Z" fill="#141414"/>
<path d="M47.5537 84.574C47.544 81.1857 47.1044 79.3548 46.738 78.4173C46.578 78.0072 46.3215 77.6337 45.9957 77.3372C43.2769 74.8537 39.7482 75.464 38.732 75.7104C38.5411 75.7566 38.3579 75.8202 38.1883 75.901C36.3564 76.7654 35.4752 78.2132 35.0607 79.2778C34.6114 80.4252 34.594 81.3647 34.594 81.4051V81.4109L34.9238 92.2478V92.2536C35.1802 97.3495 33.4197 102.927 32.7815 104.479C29.5826 112.27 26.9062 111.871 26.025 111.74C25.7897 111.706 25.568 111.673 25.4234 111.862C25.352 111.956 25.2768 112.056 25.1997 112.162C25.5391 112.187 25.8784 112.235 26.2082 112.302C26.3277 112.327 26.4511 112.358 26.5726 112.399C27.1299 112.403 27.9031 112.268 28.8151 111.623C30.3944 110.506 31.9157 108.181 33.3426 104.711C33.9924 103.127 35.7915 97.4342 35.5292 92.2305L35.2014 81.4109C35.2053 81.2569 35.3422 77.9167 38.4486 76.4536C38.5816 76.39 38.7262 76.34 38.8766 76.3034C39.8195 76.0743 43.0898 75.5064 45.5869 77.7877C45.8453 78.0226 46.0477 78.3191 46.175 78.6425C46.4604 79.3721 46.9405 81.1144 46.9501 84.5855V84.5913L48.1051 114.041C48.1032 114.303 48.0242 121.547 46.5896 126.416C46.5645 126.505 46.5414 126.591 46.5259 126.678C46.3601 127.519 45.4866 131.822 44.5919 133.824C44.4242 134.2 44.3393 134.596 44.3374 135.004L44.3277 138.396C44.5302 138.389 44.7327 138.385 44.9351 138.391L44.9448 135.004C44.9448 134.681 45.0142 134.367 45.1472 134.069C46.0689 132.007 46.954 127.646 47.1217 126.793C47.1352 126.726 47.1526 126.657 47.1738 126.585C48.6528 121.568 48.7145 114.11 48.7145 114.035V114.027L47.5537 84.574Z" fill="#141414"/>
<path d="M20.4793 136.972V138.556C20.5313 138.543 20.5834 138.529 20.6374 138.518C20.7878 138.485 20.9363 138.458 21.0867 138.437V136.974C21.0867 136.275 20.8341 135.599 20.3771 135.07L14.3784 128.141C14.1817 128.031 13.9946 127.898 13.823 127.74C13.7922 127.712 13.7633 127.683 13.7343 127.654L13.4663 128.016L19.9162 135.466C20.2807 135.882 20.4793 136.417 20.4793 136.972Z" fill="#141414"/>
<path d="M44.2932 85.4059C44.2854 85.4059 44.2777 85.4059 44.27 85.4059L38.2713 85.2903C37.9416 85.2846 37.635 85.1479 37.4094 84.9092C37.1838 84.6685 37.0662 84.3566 37.0797 84.0274L37.2108 80.745V80.7354C37.2146 80.7065 37.2898 80.0019 37.8047 79.2549C38.2752 78.5714 39.2181 77.7167 41.0325 77.5261L41.0441 77.5241C41.0749 77.5222 41.8019 77.476 42.6869 77.7475C43.8689 78.1113 44.7733 78.8698 45.2978 79.946L45.3074 79.9653C45.3248 80.0096 45.7374 81.0665 45.5292 83.1688L45.5137 84.2065C45.5099 84.5318 45.3768 84.836 45.1435 85.0632C44.9102 85.2846 44.6113 85.4059 44.2932 85.4059ZM44.2816 84.8013C44.4455 84.8052 44.5997 84.7436 44.7174 84.63C44.835 84.5164 44.9006 84.3643 44.9044 84.2007L44.9198 83.1245C45.1049 81.2763 44.7791 80.3022 44.7424 80.2002C44.2893 79.2799 43.5431 78.6523 42.525 78.3346C41.7787 78.1017 41.1463 78.1267 41.0865 78.1306C38.1595 78.4425 37.8355 80.6141 37.8143 80.7912L37.6851 84.0544C37.6793 84.2199 37.7372 84.3778 37.8509 84.4972C37.9647 84.6185 38.119 84.6858 38.2848 84.6878L44.2816 84.8013Z" fill="#141414"/>
<path d="M16.4183 156.33C14.1681 156.33 12.3362 154.503 12.3324 152.256L12.3208 142.197C12.3189 141.111 12.745 140.089 13.5182 139.315C14.2915 138.541 15.3153 138.115 16.4029 138.114L48.6197 138.079C48.6217 138.079 48.6236 138.079 48.6236 138.079C49.7092 138.079 50.7331 138.502 51.5063 139.274C52.2814 140.046 52.7076 141.069 52.7095 142.154L52.7211 152.214C52.723 153.299 52.2969 154.322 51.5236 155.096C50.7504 155.869 49.7265 156.295 48.639 156.297L16.4222 156.332V156.029V156.332C16.4222 156.33 16.4202 156.33 16.4183 156.33ZM48.6255 138.683C48.6236 138.683 48.6236 138.683 48.6217 138.683L16.4048 138.718C15.4792 138.718 14.6077 139.082 13.9482 139.74C13.2907 140.399 12.9282 141.271 12.9282 142.195L12.9398 152.254C12.9417 154.168 14.5016 155.723 16.4183 155.723C16.4202 155.723 16.4202 155.723 16.4222 155.723L48.639 155.689C50.5576 155.687 52.1156 154.127 52.1137 152.212L52.1021 142.153C52.1002 141.228 51.7377 140.358 51.0782 139.7C50.4207 139.045 49.5491 138.683 48.6255 138.683Z" fill="#141414"/>
<path d="M86.2932 57.5291C83.1078 53.9155 82.1938 52.668 81.9373 52.2406C82.429 52.1924 83.9523 52.1809 88.6514 52.5698C91.2449 52.7835 93.7844 53.0337 94.6482 53.1204L94.6386 53.2012C94.8314 53.0607 95.0532 52.9991 95.273 53.0164L95.3289 52.5794L95.0204 52.5467C94.9876 52.5428 91.6923 52.2059 88.4046 51.9383C86.4706 51.7804 84.9165 51.6784 83.7865 51.6341C83.1097 51.6072 82.5756 51.6014 82.1996 51.6168C81.6076 51.6399 81.3859 51.7073 81.2818 51.896C81.1622 52.1154 81.2933 52.3792 81.5922 52.8181C81.8062 53.1319 82.134 53.5632 82.5679 54.0984C83.291 54.9936 84.3206 56.2007 85.6261 57.6869C87.8474 60.2128 90.1343 62.7059 90.1574 62.7309L90.3656 62.9581L90.6144 62.7213C90.4293 62.5442 90.329 62.2824 90.329 62.0205C89.685 61.314 87.9901 59.4523 86.2932 57.5291Z" fill="#141414"/>
<path d="M84.7296 56.651L84.4365 56.3218C84.4288 56.3122 83.588 55.365 82.7763 54.3832C82.2981 53.8037 81.9201 53.3262 81.656 52.9624C81.1585 52.277 81.1045 52.0652 81.1739 51.8766C81.2607 51.6378 81.4998 51.5743 82.3308 51.5724C82.7801 51.5705 83.3952 51.5916 84.1627 51.634C85.4604 51.7052 86.7638 51.815 86.7754 51.815L87.2285 51.8535L84.7296 56.651ZM81.8604 52.1884C82.2171 52.7737 83.4068 54.2291 84.5984 55.5883L86.2721 52.381C84.448 52.2366 82.5526 52.1422 81.8604 52.1884Z" fill="#141414"/>
<path d="M132.326 71.1055C132.492 71.1229 132.658 71.1479 132.814 71.1902C132.903 71.2153 132.994 71.2441 133.084 71.2788L132.992 71.1055C131.266 67.1647 129.226 67.4342 129.135 67.4477L126.102 67.9579C126.297 68.1196 126.492 68.2832 126.686 68.443C126.698 68.4507 126.711 68.4584 126.723 68.468L129.228 68.0464C129.262 68.0426 129.656 68.0098 130.23 68.3679C130.77 68.701 131.559 69.4479 132.326 71.1055Z" fill="#141414"/>
<path d="M138.58 85.7371C138.439 87.6757 137.639 89.5489 136.225 91.0121C135.733 91.5203 135.215 91.9304 134.681 92.2307L134.187 92.5079L134.864 92.8506C134.866 92.8506 134.866 92.8487 134.868 92.8487C134.883 92.8429 134.904 92.8275 134.926 92.8121C134.943 92.7986 134.964 92.7852 134.985 92.7794C135.082 92.6985 135.18 92.6177 135.286 92.5503C135.338 92.5176 135.394 92.4868 135.454 92.4617C135.87 92.1768 136.275 91.8322 136.663 91.4318C138.013 90.0341 138.863 88.2706 139.121 86.33C139.141 86.1799 139.158 86.0297 139.17 85.8795C139.006 85.8506 138.844 85.816 138.686 85.7698C138.651 85.7582 138.616 85.7486 138.58 85.7371Z" fill="#141414"/>
<path d="M156.545 81.9441C156.194 80.5715 155.581 79.3393 154.727 78.2805L140.437 60.9191L140.425 60.9076C140.377 60.8537 139.203 59.585 137.487 58.4376C135.657 57.2131 133.435 56.6837 131.235 56.9455L108.798 59.6158C109.063 59.7698 109.315 59.945 109.556 60.1356L131.307 57.5481C133.364 57.3036 135.439 57.7984 137.149 58.942C138.746 60.0105 139.887 61.2195 139.974 61.3138L154.256 78.6636C156.067 80.9064 156.36 83.5748 156.287 85.4191C156.206 87.4367 155.683 88.9402 155.677 88.9557L155.675 88.9634L152.126 100.925L152.112 100.917C152.104 100.951 152.099 100.984 152.089 101.017C152.075 101.071 152.064 101.127 152.047 101.179C152.037 101.258 152.025 101.338 152.008 101.417C152 101.456 151.989 101.491 151.975 101.527L152.502 101.795L156.254 89.152C156.3 89.0173 156.809 87.5156 156.894 85.4653C156.94 84.2197 156.825 83.0376 156.545 81.9441Z" fill="#141414"/>
<path d="M183 186.628H154.557L131.804 141.819L132.132 141.658L163.679 126.145L183 164.254V186.628ZM154.931 186.029H182.393V164.394L163.407 126.945L132.617 142.085L154.931 186.029Z" fill="#141414"/>
<path d="M176.172 186.628H154.593L154.51 186.463L131.861 141.85L149.134 133.368L176.172 186.628ZM154.969 186.031H175.192L148.861 134.169L132.673 142.118L154.969 186.031Z" fill="#141414"/>
<path d="M95.1096 52.5717L94.9573 52.4985L94.8146 52.5909C94.1416 53.0241 93.7502 53.5112 93.648 54.0387C93.5998 54.289 93.6248 54.5027 93.6711 54.6663C93.297 54.8415 93.0445 55.0956 92.9153 55.421C92.7552 55.8272 92.8381 56.2449 92.9307 56.5125C92.4216 56.8071 92.0919 57.1825 91.9492 57.633C91.8258 58.0238 91.874 58.3858 91.9454 58.636C91.4633 58.8151 91.1394 59.0942 90.9812 59.4658C90.8212 59.8412 90.8752 60.2243 90.9542 60.4919C90.6496 60.6036 90.4124 60.7884 90.2485 61.0464C89.832 61.7029 90.0827 62.5769 90.0923 62.6154L90.1309 62.7463L103.272 68.9974C103.411 68.8241 103.513 68.7221 103.771 68.5642L90.6477 62.3208C90.6091 62.111 90.5647 61.6797 90.7634 61.3698C90.8906 61.1696 91.1027 61.0483 91.4132 61.0002L91.8412 60.9309L91.6291 60.5516C91.6272 60.5477 91.3746 60.0895 91.5404 59.7026C91.6542 59.4369 91.9492 59.2444 92.4178 59.125L92.8034 59.0288L92.6067 58.6822C92.6048 58.6784 92.3831 58.2683 92.5258 57.8178C92.6376 57.4636 92.948 57.1633 93.4455 56.9265L93.7405 56.7859L93.5805 56.5029C93.5786 56.4991 93.324 56.0332 93.4783 55.6443C93.5689 55.4133 93.8003 55.2381 94.1628 55.1245L94.5793 55.0032L94.3209 54.6624C94.3055 54.6374 94.184 54.4353 94.2457 54.1407C94.3132 53.8231 94.5735 53.4977 95.0035 53.1935L151.2 80.2231L146.906 89.079L114.791 73.8027C114.839 73.8739 114.882 73.947 114.92 74.0221C115.022 74.2243 115.125 74.4418 115.192 74.6651L146.917 89.7547L147.189 89.8837L152.012 79.9401L95.1096 52.5717Z" fill="#141414"/>
<path d="M92.1671 57.1421L92.036 57.4155C91.8085 57.8871 91.8605 58.3396 91.9454 58.636C91.4633 58.8151 91.1394 59.0942 90.9812 59.4658C90.8212 59.8412 90.8752 60.2243 90.9542 60.4919C90.6496 60.6036 90.4124 60.7884 90.2485 61.0464C89.832 61.7029 90.0827 62.5769 90.0923 62.6154L90.1309 62.7463L103.426 69.0705C103.461 69.0263 103.494 68.982 103.528 68.9396C103.654 68.8357 103.781 68.7317 103.91 68.6297L90.6477 62.3208C90.6091 62.111 90.5647 61.6798 90.7634 61.3698C90.8906 61.1696 91.1027 61.0483 91.4132 61.0002L91.8412 60.9309L91.6291 60.5516C91.6272 60.5477 91.3746 60.0895 91.5404 59.7026C91.6542 59.4369 91.9492 59.2444 92.4178 59.125L92.8053 59.0288L92.6087 58.6842C92.599 58.6688 92.4313 58.355 92.491 57.9718L148.863 85.0419L146.906 89.079L114.822 73.8181C114.835 73.9105 114.839 74.0048 114.831 74.0972C114.907 74.2589 114.972 74.4226 115.032 74.5881L146.917 89.7548L147.189 89.8837L149.675 84.7589L92.1671 57.1421Z" fill="#141414"/>
<path d="M150.309 110.624L152.704 101.206L152.162 100.93C152.149 101.094 152.112 101.26 152.048 101.423C152.027 101.475 152.006 101.527 151.983 101.577L149.721 110.474C149.551 111.144 149.628 111.852 149.937 112.47L150.565 113.723C150.689 113.656 150.812 113.589 150.94 113.527C150.995 113.5 151.049 113.473 151.105 113.446L150.481 112.199C150.236 111.711 150.174 111.153 150.309 110.624Z" fill="#141414"/>
<path d="M134.856 92.8254C134.864 92.8292 134.872 92.8331 134.879 92.8369C134.974 92.7522 135.07 92.6714 135.169 92.5886C135.246 92.5231 135.325 92.4692 135.406 92.4269C135.271 92.3556 135.138 92.2882 135.012 92.2286C134.8 92.1246 134.617 92.2517 134.424 92.3884C133.707 92.8908 131.524 94.4214 125.257 88.9615C124.01 87.8738 119.99 83.7327 117.963 79.1238L113.461 69.4209L113.455 69.4093C113.437 69.3747 113.005 68.5526 112.101 67.7383C111.264 66.9836 109.845 66.0922 107.846 66.1384C107.659 66.1423 107.47 66.1673 107.281 66.2097C106.274 66.4407 102.892 67.4572 101.59 70.8494C101.434 71.2556 101.372 71.7003 101.413 72.1315C101.504 73.1211 101.926 74.9308 103.416 77.9244L115.422 104.405L115.427 104.417C115.46 104.482 118.815 111.034 122.338 114.807C122.388 114.859 122.433 114.913 122.475 114.967C123.001 115.645 125.711 119.102 127.434 120.515C127.683 120.719 127.882 120.966 128.024 121.251L129.677 124.522C129.727 124.472 129.781 124.425 129.839 124.387C129.951 124.312 130.065 124.242 130.18 124.177L128.564 120.979C128.383 120.619 128.131 120.305 127.816 120.049C126.142 118.679 123.47 115.269 122.951 114.599C122.899 114.532 122.841 114.463 122.78 114.397C119.361 110.735 116.087 104.378 115.969 104.151L103.968 77.6684L103.964 77.6588C102.437 74.5919 102.09 72.8439 102.018 72.0757C101.988 71.735 102.036 71.3846 102.159 71.065C103.353 67.952 106.486 67.0125 107.419 66.7988C107.568 66.7641 107.718 66.7449 107.863 66.743C109.299 66.7102 110.586 67.1915 111.681 68.1714C112.475 68.8838 112.88 69.6173 112.915 69.6808L117.41 79.3683C119.48 84.0754 123.586 88.305 124.86 89.4159C127.652 91.8493 130.026 93.2297 131.912 93.5184C133.516 93.7629 134.364 93.1681 134.773 92.8831C134.8 92.8639 134.829 92.8427 134.856 92.8254Z" fill="#141414"/>
<path d="M106.13 77.3489C106.008 77.3489 105.887 77.3297 105.767 77.2931C105.458 77.1968 105.208 76.9851 105.059 76.6982L104.587 75.7895C103.472 74.026 103.368 72.9113 103.364 72.8651L103.363 72.844C103.351 71.6619 103.812 70.5934 104.695 69.7502C105.356 69.1207 106.018 68.8396 106.047 68.828L106.056 68.8242C107.743 68.1927 108.952 68.5315 109.672 68.9262C110.456 69.3594 110.834 69.9466 110.852 69.9716L110.861 69.987L112.425 72.817C112.583 73.1019 112.618 73.4312 112.524 73.745C112.429 74.0568 112.219 74.3129 111.93 74.465L106.691 77.2103C106.513 77.3027 106.322 77.3489 106.13 77.3489ZM103.97 72.8247C103.981 72.9248 104.124 73.9279 105.108 75.4796L105.121 75.5027L105.599 76.4229C105.673 76.5654 105.798 76.6693 105.952 76.7175C106.104 76.7656 106.268 76.7502 106.409 76.677L111.648 73.9317C111.793 73.8566 111.897 73.7296 111.943 73.5736C111.989 73.4177 111.972 73.254 111.895 73.1135L110.337 70.2931C110.244 70.1526 108.999 68.3756 106.28 69.3921C106.228 69.4152 105.657 69.6713 105.102 70.2065C104.342 70.9303 103.962 71.8121 103.97 72.8247Z" fill="#141414"/>
<path d="M132.396 142.089C131.964 142.089 131.53 142.02 131.108 141.877C130.084 141.536 129.255 140.82 128.775 139.86L124.334 130.982C123.854 130.024 123.779 128.932 124.122 127.91C124.463 126.888 125.18 126.06 126.143 125.58L154.574 111.405C155.535 110.926 156.628 110.851 157.652 111.193C158.676 111.534 159.505 112.25 159.985 113.211L164.426 122.088C164.906 123.047 164.981 124.138 164.638 125.161C164.296 126.183 163.579 127.011 162.617 127.49L162.482 127.219L162.617 127.49L134.185 141.665C133.622 141.946 133.011 142.089 132.396 142.089ZM156.364 111.59C155.841 111.59 155.322 111.711 154.844 111.95L126.412 126.125C125.597 126.531 124.988 127.234 124.696 128.104C124.405 128.974 124.469 129.9 124.876 130.715L129.316 139.592C129.723 140.406 130.427 141.015 131.299 141.305C132.17 141.596 133.098 141.532 133.913 141.126L162.345 126.951C163.161 126.545 163.77 125.842 164.061 124.972C164.352 124.102 164.289 123.176 163.882 122.361L159.441 113.484C159.034 112.67 158.33 112.062 157.459 111.771C157.1 111.648 156.732 111.59 156.364 111.59Z" fill="#141414"/>
<path d="M151.298 91.5489C150.889 91.5489 150.474 91.4603 150.081 91.2736L147.011 89.8143L151.739 79.8091L154.851 81.305C156.255 81.9807 156.851 83.671 156.182 85.0764L153.862 89.9356C153.378 90.9521 152.358 91.5489 151.298 91.5489ZM147.819 89.5255L150.343 90.7268C151.454 91.2543 152.788 90.7826 153.317 89.6737L155.636 84.8146C156.163 83.7114 155.694 82.3811 154.591 81.8498L152.03 80.6177L147.819 89.5255Z" fill="#141414"/>
</svg>
