<svg width="188" height="226" viewBox="0 0 188 226" fill="none" xmlns="http://www.w3.org/2000/svg">
<g opacity="0.1">
<path d="M184.588 39.0252C154.257 30.5052 123.748 17.2387 96.3586 0.660453C94.9037 -0.220151 93.0984 -0.220151 91.644 0.660453C63.4645 17.715 34.6039 30.2637 3.41178 39.0252C1.39675 39.5906 0 41.4684 0 43.6105V92.1854C0 142.207 22.5094 175.317 41.393 194.285C61.7224 214.707 85.4034 226 94.0013 226C102.598 226 126.279 214.707 146.609 194.285C165.492 175.318 188 142.207 188 92.1854V43.6101C188 41.4684 186.603 39.5906 184.588 39.0252ZM178.726 92.1849C178.726 138.905 157.731 169.801 140.118 187.493C120.126 207.575 98.7517 216.491 94.0013 216.491C89.2509 216.491 67.8752 207.575 47.8833 187.493C30.2703 169.8 9.27475 138.905 9.27475 92.1849V47.219C39.1033 38.5366 66.8823 26.4195 94.0022 10.2628C120.445 25.9909 149.61 38.7105 178.726 47.2172V92.1849Z" fill="#141414"/>
<path d="M52.8976 46.6871C51.959 44.2439 49.2667 43.0437 46.8831 44.0064C38.5991 47.3527 30.0963 50.4329 21.6112 53.1616C19.6776 53.784 18.3618 55.6203 18.3618 57.6975V76.056C18.3618 78.6815 20.4384 80.8099 22.9989 80.8099C25.5595 80.8099 27.6361 78.6815 27.6361 76.056V61.1718C35.248 58.647 42.8517 55.8542 50.2828 52.8522C52.666 51.8904 53.8367 49.1303 52.8976 46.6871Z" fill="#141414"/>
<path d="M61.7065 47.5889C62.3287 47.5889 62.9603 47.4604 63.5661 47.1894L63.6514 47.1515C65.9975 46.0974 67.0541 43.2975 66.0259 40.8932C64.9969 38.488 62.2503 37.3999 59.9068 38.4531L59.8318 38.4862C57.4844 39.5372 56.4244 42.3348 57.4495 44.7405C58.2103 46.5264 59.9175 47.5889 61.7065 47.5889Z" fill="#141414"/>
<path d="M149.251 153.293C147.108 151.857 144.234 152.474 142.832 154.672C139.011 160.668 134.528 166.41 129.506 171.736C125.376 176.116 120.9 180.198 116.204 183.868C114.168 185.46 113.776 188.443 115.328 190.531C116.242 191.758 117.622 192.403 119.019 192.403C120 192.403 120.988 192.086 121.828 191.429C126.893 187.469 131.72 183.067 136.173 178.345C141.603 172.587 146.455 166.372 150.596 159.873C151.998 157.674 151.394 154.729 149.251 153.293Z" fill="#141414"/>
<path d="M105.435 191.324L105.169 191.485C102.953 192.801 102.195 195.709 103.478 197.98C104.338 199.503 105.895 200.353 107.496 200.353C108.284 200.353 109.084 200.147 109.815 199.713L110.122 199.528C112.332 198.201 113.074 195.289 111.78 193.023C110.485 190.758 107.644 189.999 105.435 191.324Z" fill="#141414"/>
</g>
</svg>
