<svg width="100" height="100" viewBox="0 0 100 100" fill="none" xmlns="http://www.w3.org/2000/svg">
<path d="M39.5834 60.4166C40.735 60.4166 41.6668 59.4848 41.6668 58.3332V45.8332C41.6668 42.3867 38.8633 39.5832 35.4168 39.5832C31.9703 39.5832 29.1668 42.3867 29.1668 45.8332V58.3332C29.1668 59.4848 30.0986 60.4166 31.2502 60.4166C32.4018 60.4166 33.3336 59.4848 33.3336 58.3332V56.25H37.5V58.3334C37.5 59.485 38.4318 60.4166 39.5834 60.4166ZM33.3334 52.0834V45.8334C33.3334 44.684 34.2672 43.75 35.4168 43.75C36.5662 43.75 37.5002 44.6838 37.5002 45.8334V52.0834H33.3334Z" fill="#4B49BF"/>
<path d="M50 41.6666C50 40.515 49.0682 39.5832 47.9166 39.5832C46.765 39.5832 45.8332 40.515 45.8332 41.6666V58.3332C45.8332 59.4848 46.765 60.4166 47.9166 60.4166H56.25C57.4016 60.4166 58.3334 59.4848 58.3334 58.3332C58.3334 57.1816 57.4016 56.2498 56.25 56.2498H50V41.6666Z" fill="#4B49BF"/>
<path d="M66.6666 60.4166C70.1131 60.4166 72.9166 57.6131 72.9166 54.1666V41.6666C72.9166 40.515 71.9848 39.5832 70.8332 39.5832C69.6816 39.5832 68.75 40.5152 68.75 41.6666V54.1666C68.75 55.316 67.8162 56.25 66.6666 56.25C65.5172 56.25 64.5832 55.3162 64.5832 54.1666V41.6666C64.5832 40.515 63.6514 39.5832 62.4998 39.5832C61.3482 39.5832 60.4164 40.515 60.4164 41.6666V54.1666C60.4166 57.6131 63.2203 60.4166 66.6666 60.4166Z" fill="#4B49BF"/>
<path d="M80.7861 83.8807C72.3084 91.5894 61.375 95.8334 50 95.8334C39.4756 95.8334 29.5369 92.2607 21.5941 85.9701L26.5502 77.8809C26.8939 77.3213 26.9531 76.6338 26.7109 76.0234C26.4668 75.4131 25.9521 74.9533 25.3193 74.7824L8.06465 70.1111C7.26504 69.8975 6.41269 70.1701 5.8959 70.815C5.37715 71.46 5.28965 72.3512 5.67207 73.0855C14.3371 89.6871 31.3232 100 50 100C62.4146 100 74.3428 95.3715 83.5896 86.9648C84.44 86.1897 84.5031 84.8734 83.7301 84.0209C82.957 83.1705 81.6365 83.1115 80.7861 83.8807ZM18.4082 83.1971C15.9932 80.8898 13.8143 78.3061 11.9223 75.4721L21.5434 78.0762L18.4082 83.1971Z" fill="#4B49BF"/>
<path d="M4.1666 50C4.1666 30.7109 16.1438 14.1662 33.0525 7.41367L37.5793 15.7512C37.8926 16.327 38.4582 16.7217 39.1072 16.8172C39.7521 16.9066 40.4113 16.6992 40.8773 16.2354L53.5502 3.66816C54.1381 3.08633 54.3254 2.20937 54.0264 1.43828C53.7293 0.667187 53.001 0.144336 52.175 0.107617L51.4508 0.0628906C50.9705 0.0304688 50.4883 0 50 0C22.4305 0 0 22.4305 0 50C0 53.5115 0.388672 57.0861 1.15566 60.6262C1.36719 61.6027 2.22988 62.268 3.19023 62.268C3.33672 62.268 3.48516 62.2537 3.63379 62.2211C4.75879 61.977 5.47305 60.8682 5.22891 59.743C4.5248 56.4941 4.1666 53.2145 4.1666 50ZM47.0357 4.2623L39.915 11.3221L37.0424 6.03242C40.2426 5.08633 43.5873 4.48203 47.0357 4.2623Z" fill="#4B49BF"/>
<path d="M65.2182 2.37637C64.1135 2.01211 62.9477 2.62871 62.5998 3.7252C62.2478 4.82188 62.8541 5.99375 63.9486 6.34355C83.0201 12.435 95.8334 29.9785 95.8334 50C95.8334 52.2236 95.6707 54.4332 95.3512 56.6143L85.8725 56.366C85.2092 56.3498 84.5887 56.6428 84.1838 57.1574C83.777 57.6721 83.6365 58.3477 83.8033 58.9824L88.3688 76.2533C88.5803 77.0529 89.2436 77.651 90.0615 77.7793C90.1693 77.7955 90.2771 77.8037 90.383 77.8037C91.0869 77.8037 91.7522 77.4457 92.1389 76.8414C97.2818 68.7846 100 59.5031 100 50C100 28.1576 86.0209 9.01894 65.2182 2.37637ZM91.0889 70.2393L88.5416 60.6039L94.5434 60.7605C93.7481 64.0279 92.5904 67.2059 91.0889 70.2393Z" fill="#4B49BF"/>
</svg>
