<svg width="50" height="50" viewBox="0 0 50 50" fill="none" xmlns="http://www.w3.org/2000/svg">
<path d="M44.6651 9.56413H46.21C46.7489 9.56413 47.1859 9.12712 47.1859 8.58821C47.1859 8.04931 46.7489 7.61229 46.21 7.61229H42.5015C41.9626 7.61229 41.5256 8.04931 41.5256 8.58821V12.2967C41.5256 12.8356 41.9626 13.2726 42.5015 13.2726C43.0404 13.2726 43.4774 12.8356 43.4774 12.2967V11.2229C46.4386 15.1872 48.0482 19.9972 48.0482 25C48.0482 37.7088 37.7088 48.0482 25 48.0482C12.2912 48.0482 1.95184 37.7088 1.95184 25C1.95184 12.2912 12.2912 1.95184 25 1.95184C25.9399 1.95184 26.8859 2.00894 27.8118 2.12146C28.3461 2.18607 28.8334 1.80555 28.8984 1.27046C28.9635 0.735455 28.5825 0.24886 28.0474 0.183864C27.0436 0.0618735 26.0184 0 25 0C18.3223 0 12.0441 2.60044 7.32234 7.32234C2.60044 12.0441 0 18.3223 0 25C0 31.6777 2.60044 37.9559 7.32234 42.6777C12.0441 47.3996 18.3223 50 25 50C31.6777 50 37.9559 47.3996 42.6777 42.6777C47.3996 37.9559 50 31.6777 50 25C50 19.3649 48.1174 13.9552 44.6651 9.56413Z" fill="#4B49BF"/>
<path d="M10.586 14.7377C10.1306 14.4494 9.52773 14.5851 9.23935 15.0402C7.01142 18.559 6.02515 22.7908 6.46226 26.9561C6.90582 31.1832 8.80838 35.1695 11.8195 38.1807C15.4533 41.8146 20.2267 43.6315 25.0001 43.6315C29.7735 43.6315 34.5468 41.8146 38.1807 38.1807C45.4485 30.9129 45.4485 19.0873 38.1807 11.8196C35.1742 8.81316 31.1945 6.91128 26.9744 6.46431C22.8168 6.02368 18.5896 7.00224 15.0722 9.21924C14.6162 9.50665 14.4797 10.1093 14.767 10.5652C15.0544 11.0213 15.657 11.1578 16.113 10.8705C22.7432 6.6916 31.25 7.64928 36.8005 13.1997C43.3072 19.7065 43.3072 30.2937 36.8005 36.8005C30.2938 43.3073 19.7064 43.3073 13.1997 36.8005C7.72598 31.3267 6.75397 22.6144 10.8886 16.0845C11.1767 15.629 11.0414 15.0261 10.586 14.7377Z" fill="#4B49BF"/>
<path d="M37.6871 25.9917H38.8906C39.4295 25.9917 39.8665 25.5547 39.8665 25.0158C39.8665 24.4769 39.4295 24.0399 38.8906 24.0399H37.6871C37.1482 24.0399 36.7112 24.4769 36.7112 25.0158C36.7112 25.5547 37.1481 25.9917 37.6871 25.9917Z" fill="#4B49BF"/>
<path d="M10.1335 24.9842C10.1335 25.5231 10.5705 25.9601 11.1094 25.9601H12.3129C12.8518 25.9601 13.2888 25.5231 13.2888 24.9842C13.2888 24.4453 12.8518 24.0083 12.3129 24.0083H11.1094C10.5705 24.0083 10.1335 24.4452 10.1335 24.9842Z" fill="#4B49BF"/>
<path d="M25.9917 12.3129V11.1094C25.9917 10.5705 25.5547 10.1335 25.0158 10.1335C24.4769 10.1335 24.0399 10.5705 24.0399 11.1094V12.3129C24.0399 12.8518 24.4769 13.2888 25.0158 13.2888C25.5547 13.2888 25.9917 12.8518 25.9917 12.3129Z" fill="#4B49BF"/>
<path d="M24.0083 37.6871V38.8906C24.0083 39.4295 24.4453 39.8665 24.9842 39.8665C25.5231 39.8665 25.9601 39.4295 25.9601 38.8906V37.6871C25.9601 37.1482 25.5231 36.7112 24.9842 36.7112C24.4453 36.7112 24.0083 37.1481 24.0083 37.6871Z" fill="#4B49BF"/>
<path d="M20.1083 18.728C19.7271 18.347 19.1093 18.347 18.728 18.728C18.3469 19.1091 18.3469 19.7271 18.728 20.1083L22.0355 23.4158C21.7821 23.8881 21.6379 24.4275 21.6379 25C21.6379 26.8539 23.1461 28.3621 25 28.3621C26.8539 28.3621 28.3621 26.8539 28.3621 25C28.3621 24.4275 28.2178 23.8881 27.9645 23.4158L34.6381 16.7421C35.0192 16.361 35.0192 15.7431 34.6381 15.3619C34.2569 14.9809 33.6392 14.9809 33.2579 15.3619L26.5842 22.0355C26.1119 21.7821 25.5725 21.638 25 21.638C24.4275 21.638 23.8881 21.7822 23.4158 22.0355L20.1083 18.728ZM26.4102 25C26.4102 25.7776 25.7776 26.4102 25 26.4102C24.2224 26.4102 23.5898 25.7776 23.5898 25C23.5898 24.2224 24.2224 23.5898 25 23.5898C25.7776 23.5898 26.4102 24.2224 26.4102 25Z" fill="#4B49BF"/>
<path d="M13.1992 13.1992C13.3816 13.0176 13.486 12.7658 13.486 12.5092C13.486 12.2525 13.3816 12.0017 13.1992 11.8192C13.0176 11.6378 12.7667 11.5333 12.5092 11.5333C12.2525 11.5333 12.0007 11.6377 11.8192 11.8192C11.6378 12.0007 11.5333 12.2525 11.5333 12.5092C11.5333 12.7668 11.6377 13.0176 11.8192 13.1992C12.0007 13.3806 12.2525 13.4851 12.5092 13.4851C12.7667 13.4851 13.0176 13.3806 13.1992 13.1992Z" fill="#4B49BF"/>
<path d="M31.7602 2.91586C32.018 2.91586 32.2697 2.81231 32.4512 2.62991C32.6327 2.44839 32.7372 2.19748 32.7372 1.93994C32.7372 1.68327 32.6328 1.43148 32.4512 1.24996C32.2697 1.06854 32.018 0.964016 31.7602 0.964016C31.5035 0.964016 31.2518 1.06844 31.0703 1.24996C30.8888 1.43148 30.7843 1.68327 30.7843 1.93994C30.7843 2.19758 30.8887 2.44839 31.0703 2.62991C31.2518 2.81231 31.5035 2.91586 31.7602 2.91586Z" fill="#4B49BF"/>
</svg>
