<svg width="100" height="100" viewBox="0 0 100 100" fill="none" xmlns="http://www.w3.org/2000/svg">
<path d="M77.8032 51.824C75.4684 51.824 73.2631 50.8092 71.7371 49.0281C70.3368 47.3936 69.6598 45.3098 69.8218 43.2043H57.2276C56.1354 43.2043 55.2498 42.3299 55.2498 41.2512V28.0797C55.2498 27.5 55.5104 26.9502 55.9616 26.5791C56.4125 26.208 57.008 26.0543 57.5846 26.1586L57.703 26.1801C58.8927 26.3953 60.1076 26.0793 61.0366 25.3145C61.9658 24.5494 62.4988 23.4256 62.4988 22.2309C62.4988 21.0363 61.966 19.9127 61.0368 19.1479C60.1078 18.3832 58.8925 18.068 57.7026 18.2828L57.5844 18.3043C57.0066 18.4088 56.4123 18.2547 55.9616 17.8836C55.5108 17.5125 55.25 16.9629 55.25 16.3832V1.95312C55.25 0.874414 56.1356 0 57.2278 0H90.038C94.9795 0 99 3.97012 99 8.85019V41.2512C99 42.3299 98.1145 43.2043 97.0222 43.2043H85.7889C85.975 45.2635 85.3402 47.316 83.9978 48.9303C82.4971 50.7348 80.2817 51.7891 77.9195 51.8232C77.8807 51.8238 77.8419 51.824 77.8032 51.824ZM59.2056 39.298H72.1481C72.7349 39.298 73.2914 39.5555 73.6674 40.0006C74.043 40.4457 74.1994 41.0326 74.0936 41.6027L73.824 43.0576C73.5958 44.2898 73.9358 45.5463 74.757 46.5049C75.5522 47.433 76.6566 47.9322 77.8617 47.9172C79.0579 47.9 80.1803 47.3654 80.9409 46.451C81.7012 45.5367 82.0135 44.3449 81.7977 43.1811L81.5054 41.6025C81.3998 41.0324 81.556 40.4455 81.9318 40.0004C82.3076 39.5553 82.8642 39.2979 83.451 39.2979H95.0442V8.85019C95.0442 6.12402 92.7984 3.90625 90.038 3.90625H59.2056V14.3461C60.7933 14.4963 62.3139 15.1139 63.5694 16.1475C65.4028 17.6566 66.4542 19.874 66.4542 22.2309C66.4542 24.5879 65.4028 26.8055 63.5694 28.3146C62.3137 29.3484 60.7933 29.9662 59.2056 30.1166V39.298Z" fill="#4B49BF"/>
<path d="M82.5665 67.7734C83.6588 67.7734 84.5443 66.899 84.5443 65.8203V58.7488C84.5443 57.6701 83.6588 56.7957 82.5665 56.7957H68.9955C68.4086 56.7957 67.8521 57.0531 67.4763 57.4982C67.1005 57.9434 66.9443 58.5303 67.0499 59.1004L67.3424 60.6789C67.5582 61.8428 67.2459 63.0346 66.4854 63.9488C65.7248 64.8635 64.6024 65.3979 63.4064 65.415C62.1999 65.4283 61.0967 64.9309 60.3017 64.0027C59.4805 63.0441 59.1405 61.7877 59.3687 60.5557L59.6383 59.1006C59.7439 58.5305 59.5877 57.9436 59.2121 57.4982C58.8363 57.0531 58.2795 56.7957 57.6927 56.7957H44.75V47.6143C46.338 47.4639 47.8583 46.8463 49.114 45.8125C50.9475 44.3031 51.9987 42.0857 51.9987 39.7287C51.9987 37.3717 50.9473 35.1543 49.1138 33.6451C47.8581 32.6115 46.3378 31.9939 44.75 31.8437V19.4508C44.75 18.3721 43.8646 17.4977 42.7722 17.4977H9.96199C5.02027 17.4977 1 21.4678 1 26.3479V91.1498C1 96.0299 5.02027 100 9.96199 100H75.5825C80.524 100 84.5445 96.0299 84.5445 91.1498V85.4816C84.5445 84.4029 83.659 83.5285 82.5667 83.5285C81.4745 83.5285 80.5889 84.4029 80.5889 85.4816V91.1498C80.5889 93.8758 78.3431 96.0938 75.5825 96.0938H44.75V83.4957C44.75 82.9164 44.4896 82.3668 44.039 81.9957C43.5885 81.6246 42.994 81.4701 42.417 81.5742L42.2974 81.5957C41.1075 81.8107 39.8922 81.4957 38.9634 80.7311C38.0342 79.9664 37.5012 78.8428 37.5012 77.6471C37.5012 76.4525 38.034 75.3287 38.9634 74.5639C39.8926 73.7988 41.1075 73.4834 42.2986 73.6988L42.417 73.7201C42.9936 73.8238 43.5883 73.6697 44.039 73.2986C44.4896 72.9275 44.75 72.3781 44.75 71.7986V60.7016H55.3665C55.2043 62.807 55.8813 64.8906 57.2817 66.5252C58.8331 68.3359 61.0934 69.357 63.4639 69.3205C65.826 69.2865 68.0416 68.232 69.5423 66.4275C70.8846 64.8135 71.5195 62.7607 71.3334 60.7016H80.5889V65.8203C80.5887 66.899 81.4744 67.7734 82.5665 67.7734ZM4.95559 26.3479C4.95559 23.6219 7.20158 21.4039 9.96199 21.4039H40.7944V33.8807C40.7944 34.4602 41.0549 35.0096 41.5057 35.3807C41.9564 35.7516 42.5507 35.9057 43.1278 35.802L43.2463 35.7807C43.2463 35.7807 43.2467 35.7805 43.2469 35.7805C44.4366 35.5656 45.6521 35.8807 46.5813 36.6455C47.5104 37.4105 48.0433 38.5342 48.0433 39.7287C48.0433 40.9232 47.5104 42.0473 46.5813 42.8121C45.6521 43.577 44.437 43.8924 43.2471 43.6775L43.1282 43.6561C42.5509 43.5518 41.9566 43.7061 41.5059 44.0771C41.0551 44.4482 40.7944 44.9979 40.7944 45.5773V56.7957H32.3081C31.3382 53.4855 28.253 51.0988 24.6028 51.0988C20.9526 51.0988 17.8676 53.4855 16.8977 56.7957H4.95559V26.3479ZM36.4306 71.5635C34.5972 73.0727 33.5456 75.2902 33.5456 77.6484C33.5456 80.0055 34.5972 82.2229 36.4306 83.732C37.6863 84.7656 39.2069 85.383 40.7944 85.533V96.0938H9.96199C7.20158 96.0938 4.95559 93.876 4.95559 91.1498V60.702H18.5646C19.6235 60.702 20.4945 59.8783 20.5406 58.8338C20.6352 56.6869 22.4195 55.0053 24.603 55.0053C26.7863 55.0053 28.5709 56.6869 28.6654 58.8338C28.7115 59.8785 29.5825 60.702 30.6414 60.702H40.7946V69.7621C39.2065 69.9123 37.6861 70.5299 36.4306 71.5635Z" fill="#4B49BF"/>
<path d="M82.5663 77.502C81.738 77.502 80.9858 76.9752 80.7058 76.2066C80.4307 75.4518 80.666 74.5787 81.2869 74.0602C81.9358 73.518 82.8877 73.4502 83.61 73.8914C84.3026 74.3147 84.6663 75.1426 84.5065 75.9316C84.324 76.8336 83.497 77.502 82.5663 77.502Z" fill="#4B49BF"/>
</svg>
