<svg width="50" height="50" viewBox="0 0 50 50" fill="none" xmlns="http://www.w3.org/2000/svg">
<path d="M45.2378 8.63389C38.4617 6.74893 31.6458 3.81388 25.5269 0.146118C25.2019 -0.0487059 24.7986 -0.0487059 24.4736 0.146118C18.1782 3.91925 11.7307 6.69552 4.76221 8.63389C4.31204 8.75899 4 9.17442 4 9.64834V20.395C4 31.4617 9.02869 38.787 13.2474 42.9834C17.7891 47.5015 23.0795 50 25.0003 50C26.9209 50 32.2113 47.5015 36.753 42.9834C40.9716 38.7871 46 31.4618 46 20.395V9.64824C46 9.17442 45.688 8.75899 45.2378 8.63389ZM43.9281 20.3949C43.9281 30.7311 39.2378 37.5665 35.3029 41.4808C30.8367 45.9236 26.0615 47.8963 25.0003 47.8963C23.939 47.8963 19.1636 45.9236 14.6973 41.4808C10.7625 37.5664 6.07202 30.7311 6.07202 20.3949V10.4467C12.7358 8.52579 18.9418 5.84503 25.0005 2.27053C30.9079 5.75021 37.4235 8.56426 43.9281 10.4463V20.3949Z" fill="#4B49BF"/>
<path d="M15.8176 10.329C15.6079 9.78848 15.0064 9.52295 14.4739 9.73594C12.6232 10.4763 10.7236 11.1577 8.82804 11.7614C8.39605 11.8991 8.1021 12.3054 8.1021 12.7649V16.8265C8.1021 17.4074 8.56602 17.8783 9.13806 17.8783C9.7101 17.8783 10.174 17.4074 10.174 16.8265V13.5336C11.8746 12.975 13.5733 12.3571 15.2334 11.693C15.7658 11.4802 16.0273 10.8695 15.8176 10.329Z" fill="#4B49BF"/>
<path d="M17.7855 10.5285C17.9245 10.5285 18.0656 10.5001 18.2009 10.4401L18.22 10.4317C18.7441 10.1985 18.9802 9.5791 18.7505 9.04717C18.5206 8.51504 17.907 8.27432 17.3834 8.50733L17.3667 8.51465C16.8423 8.74717 16.6054 9.36611 16.8345 9.89834C17.0044 10.2935 17.3858 10.5285 17.7855 10.5285Z" fill="#4B49BF"/>
<path d="M37.3432 33.9143C36.8645 33.5966 36.2225 33.7332 35.9092 34.2195C35.0556 35.546 34.054 36.8163 32.9321 37.9948C32.0094 38.9637 31.0096 39.8668 29.9605 40.6788C29.5056 41.031 29.4181 41.6909 29.7648 42.153C29.9689 42.4243 30.2773 42.5671 30.5894 42.5671C30.8085 42.5671 31.0293 42.4969 31.2168 42.3516C32.3485 41.4755 33.4268 40.5016 34.4216 39.4569C35.6346 38.183 36.7187 36.808 37.6438 35.3701C37.9569 34.8837 37.8222 34.232 37.3432 33.9143Z" fill="#4B49BF"/>
<path d="M27.5546 42.3283L27.4952 42.3639C27.0001 42.655 26.8309 43.2984 27.1175 43.801C27.3096 44.1379 27.6573 44.326 28.0151 44.326C28.1911 44.326 28.3698 44.2804 28.533 44.1842L28.6016 44.1433C29.0954 43.8497 29.2612 43.2055 28.972 42.7042C28.6827 42.2031 28.0481 42.0351 27.5546 42.3283Z" fill="#4B49BF"/>
<path d="M17.9386 22.8534C17.3025 22.2075 16.4565 21.852 15.5568 21.852C14.657 21.852 13.8109 22.2076 13.1746 22.8534C11.8613 24.187 11.8613 26.3569 13.1746 27.6904L19.2918 33.9007C19.928 34.5464 20.774 34.902 21.6739 34.902C22.5737 34.902 23.4197 34.5464 24.056 33.9005L36.8262 20.9355C38.1394 19.6016 38.1394 17.432 36.826 16.0989C36.1898 15.453 35.3438 15.0975 34.4439 15.0975C33.544 15.0975 32.698 15.4531 32.0618 16.0989L21.6738 26.6453L17.9386 22.8534ZM33.5269 17.5864C33.7717 17.3379 34.0975 17.2011 34.444 17.2011C34.7907 17.2011 35.1162 17.3379 35.3612 17.5864C35.8666 18.0996 35.8666 18.9349 35.361 19.4483L22.5909 32.4131C22.3461 32.6617 22.0203 32.7985 21.6739 32.7985C21.3274 32.7985 21.0016 32.6617 20.7567 32.4131L14.6396 26.203C14.134 25.6896 14.134 24.8543 14.6394 24.3411C14.8843 24.0925 15.2101 23.9555 15.5567 23.9555C15.9033 23.9555 16.2289 24.0924 16.4737 24.3409L20.9412 28.8766C21.1356 29.0738 21.399 29.1846 21.6738 29.1846C21.9486 29.1846 22.2119 29.0739 22.4062 28.8766L33.5269 17.5864Z" fill="#4B49BF"/>
</svg>
