<svg width="100" height="100" viewBox="0 0 100 100" fill="none" xmlns="http://www.w3.org/2000/svg">
<path d="M66.1225 48.0469C67.2094 48.0469 68.0905 47.1724 68.0905 46.0938C68.0905 45.0151 67.2094 44.1406 66.1225 44.1406C65.0356 44.1406 64.1544 45.0151 64.1544 46.0938C64.1544 47.1724 65.0356 48.0469 66.1225 48.0469Z" fill="#4B49BF"/>
<path d="M66.4602 54.4625C65.3858 54.3041 64.3843 55.0414 64.2251 56.1084C63.6872 59.7129 60.6171 62.7023 56.0127 64.1055C51.0912 65.6053 44.2599 65.1025 40.0926 60.5988C39.3573 59.8043 38.1123 59.752 37.3119 60.4813C36.5113 61.2109 36.4584 62.4465 37.1935 63.2408C39.6059 65.848 42.8825 67.625 46.669 68.3795C48.0061 68.6459 49.3932 68.7781 50.7893 68.7781C52.9459 68.7781 55.1237 68.4627 57.1681 67.8396C63.2592 65.9836 67.3529 61.8121 68.1187 56.6807C68.2779 55.6137 67.5353 54.6205 66.4602 54.4625Z" fill="#4B49BF"/>
<path d="M93.8138 37.1896C90.2367 33.0742 85.2997 30.4059 79.357 29.3342C85.0466 25.5236 89.9541 21.7314 93.4533 18.4225C98.7884 13.3773 100.577 9.83203 99.0836 7.26582C97.4214 4.40762 92.6231 4.42734 83.9823 7.32852C76.6814 9.77969 67.5863 14.0369 58.3727 19.3162C56.7812 20.2279 55.2046 21.1615 53.662 22.1023C52.518 18.8959 53.2726 15.2332 55.7968 12.0572C57.6875 9.67832 58.1096 6.65684 56.8987 4.17148C55.6293 1.5666 52.8433 0.00703125 49.4416 0H49.3491C37.3428 0 25.5993 4.70137 16.282 13.2381C6.95313 21.7854 1.24188 33.1002 0.20039 45.098C-1.05266 59.5473 3.60136 73.2844 13.3048 83.7787C22.8368 94.0877 36.3504 100 50.3803 100C57.9337 100 65.0245 98.6285 71.4555 95.9232C77.336 93.4496 82.558 89.9176 86.9766 85.4248C91.0735 81.259 94.3036 76.4635 96.5773 71.1711C98.741 66.1352 99.923 60.7984 99.9962 55.7381C100.103 48.3791 97.9648 41.9652 93.8138 37.1896ZM53.8921 26.5602C55.9751 25.2564 58.1444 23.9574 60.3406 22.6992C68.8594 17.818 77.3425 13.7975 84.2273 11.3781C91.8062 8.71504 94.9092 8.88887 95.6327 9.23262C95.5701 9.68711 95.0013 11.7092 90.0279 16.2545C85.8749 20.05 79.8104 24.5135 72.9516 28.8227C70.7834 30.1854 68.5268 31.5396 66.2449 32.8475C63.099 34.6494 59.9554 36.3344 56.8701 37.8771C56.2545 36.0941 55.4655 34.3639 54.5053 32.7131C53.5746 31.1133 52.4952 29.6113 51.2886 28.2217C52.1425 27.6662 53.0114 27.1107 53.8921 26.5602ZM53.3044 39.6098C47.7473 42.2252 42.6481 44.2191 38.576 45.3758C38.3641 44.3654 37.9913 43.3889 37.4625 42.4791C36.9612 41.6168 36.3324 40.8459 35.6056 40.1811C38.6541 37.2613 42.9449 33.8785 47.9972 30.4178C49.1702 31.7188 50.2101 33.1418 51.0967 34.6658C52.0136 36.242 52.7516 37.8998 53.3044 39.6098ZM96.0605 55.682C95.7799 75.1172 78.2354 96.0938 50.3803 96.0938C37.4499 96.0938 24.9936 90.6426 16.2051 81.1379C7.25582 71.4594 2.9649 58.7791 4.12211 45.4332C6.10963 22.5352 26.3984 3.90625 49.3491 3.90625H49.4374C51.3203 3.91016 52.7483 4.62656 53.355 5.87207C53.913 7.01699 53.6705 8.4248 52.7062 9.63809C49.1591 14.101 48.2696 19.5898 50.2737 24.2178C49.2186 24.8924 48.1816 25.5699 47.1797 26.242C47.175 26.2451 47.1702 26.2482 47.1657 26.2514C40.9076 30.4422 35.623 34.6107 32.1069 38.1188C29.4402 37.2143 26.5101 37.4779 24.0198 38.9045C19.931 41.2484 14.5622 52.1713 13.5276 54.3371C13.2505 54.9168 13.2782 55.5947 13.6014 56.1504C13.9247 56.7061 14.5023 57.0688 15.1467 57.1207C16.2344 57.2082 19.3233 57.4293 22.7612 57.4293C26.9331 57.4293 31.6186 57.1035 33.8602 55.8186C36.2884 54.4275 37.9714 52.1033 38.5544 49.4314C43.3806 48.1742 49.6864 45.7146 56.5159 42.4125C60.3423 40.5643 64.2776 38.4844 68.2129 36.2305C70.2091 35.0863 72.1827 33.9068 74.1007 32.7172C74.1123 32.7178 74.1236 32.7195 74.1352 32.7199C90.5386 33.1867 96.2166 44.8875 96.0605 55.682ZM34.8348 47.7285C34.7088 49.6928 33.6091 51.4521 31.8922 52.4357C30.031 53.5027 23.6372 53.6465 18.3875 53.4082C20.8032 48.7785 24.1251 43.3555 25.9882 42.2875C27.7473 41.2797 29.8739 41.2355 31.6782 42.1697C32.6699 42.6822 33.491 43.4641 34.0531 44.4311C34.6378 45.4369 34.908 46.5771 34.8348 47.7285Z" fill="#4B49BF"/>
<path d="M34.634 12.0781C30.2933 12.0781 26.7619 15.5828 26.7619 19.8906C26.7619 24.1984 30.2933 27.7031 34.634 27.7031C38.9747 27.7031 42.5062 24.1984 42.5062 19.8906C42.5062 15.5828 38.9747 12.0781 34.634 12.0781ZM34.634 23.7969C32.4637 23.7969 30.6979 22.0445 30.6979 19.8906C30.6979 17.7367 32.4637 15.9844 34.634 15.9844C36.8044 15.9844 38.5701 17.7367 38.5701 19.8906C38.5701 22.0445 36.8044 23.7969 34.634 23.7969Z" fill="#4B49BF"/>
<path d="M24.7938 64.5605C20.4531 64.5605 16.9217 68.0652 16.9217 72.373C16.9217 76.6809 20.4531 80.1855 24.7938 80.1855C29.1345 80.1855 32.666 76.6809 32.666 72.373C32.666 68.0652 29.1345 64.5605 24.7938 64.5605ZM24.7938 76.2793C22.6235 76.2793 20.8577 74.5269 20.8577 72.373C20.8577 70.2191 22.6235 68.4668 24.7938 68.4668C26.9642 68.4668 28.7299 70.2191 28.7299 72.373C28.7299 74.5269 26.9642 76.2793 24.7938 76.2793Z" fill="#4B49BF"/>
<path d="M44.4742 76.2793C40.1335 76.2793 36.6021 79.784 36.6021 84.0918C36.6021 88.3996 40.1335 91.9043 44.4742 91.9043C48.8149 91.9043 52.3464 88.3996 52.3464 84.0918C52.3464 79.784 48.8149 76.2793 44.4742 76.2793ZM44.4742 87.998C42.3039 87.998 40.5381 86.2457 40.5381 84.0918C40.5381 81.9379 42.3039 80.1855 44.4742 80.1855C46.6446 80.1855 48.4103 81.9379 48.4103 84.0918C48.4103 86.2457 46.6446 87.998 44.4742 87.998Z" fill="#4B49BF"/>
<path d="M68.0907 72.373C63.75 72.373 60.2186 75.8777 60.2186 80.1855C60.2186 84.4934 63.75 87.998 68.0907 87.998C72.4314 87.998 75.9629 84.4934 75.9629 80.1855C75.9629 75.8777 72.4314 72.373 68.0907 72.373ZM68.0907 84.0918C65.9204 84.0918 64.1546 82.3394 64.1546 80.1855C64.1546 78.0316 65.9204 76.2793 68.0907 76.2793C70.2611 76.2793 72.0268 78.0316 72.0268 80.1855C72.0268 82.3394 70.2611 84.0918 68.0907 84.0918Z" fill="#4B49BF"/>
<path d="M83.835 52.8418C79.4943 52.8418 75.9629 56.3465 75.9629 60.6543C75.9629 64.9621 79.4943 68.4668 83.835 68.4668C88.1758 68.4668 91.7072 64.9621 91.7072 60.6543C91.7072 56.3465 88.1758 52.8418 83.835 52.8418ZM83.835 64.5605C81.6647 64.5605 79.899 62.8082 79.899 60.6543C79.899 58.5004 81.6647 56.748 83.835 56.748C86.0054 56.748 87.7711 58.5004 87.7711 60.6543C87.7711 62.8082 86.0054 64.5605 83.835 64.5605Z" fill="#4B49BF"/>
</svg>
