<svg width="50" height="50" viewBox="0 0 50 50" fill="none" xmlns="http://www.w3.org/2000/svg">
<path d="M20.9913 50C19.4925 50 18.0179 49.3021 17.088 48.0099C16.4542 47.129 15.395 46.6904 14.3241 46.865C14.0666 46.907 13.8097 46.9274 13.556 46.9275C11.3706 46.9276 9.39945 45.4185 8.8847 43.2306C8.63622 42.1742 7.82572 41.3637 6.76936 41.1152C4.3275 40.5408 2.73101 38.1515 3.13489 35.6758C3.30953 34.6048 2.87088 33.5457 1.99005 32.912C-0.0460807 31.4469 -0.606636 28.6286 0.713828 26.4958C1.28503 25.5732 1.28503 24.4269 0.713828 23.5042C-0.606636 21.3715 -0.0460807 18.5531 1.99005 17.088C2.87088 16.4542 3.30953 15.3951 3.13489 14.3241C2.7311 11.8484 4.3275 9.45911 6.76936 8.88469C7.82572 8.63621 8.63622 7.8257 8.8847 6.76935C9.45913 4.32749 11.8483 2.7309 14.3241 3.13489C15.3953 3.30962 16.4542 2.87087 17.0879 1.99004C18.553 -0.0461783 21.3714 -0.606537 23.5042 0.713827C24.4267 1.28503 25.573 1.28513 26.4957 0.713827C28.6284 -0.606635 31.4468 -0.0460806 32.912 1.99004C33.5457 2.87097 34.605 3.30923 35.6759 3.13489C38.1513 2.731 40.5409 4.32749 41.1153 6.76935C41.3638 7.8257 42.1743 8.63621 43.2306 8.88469C45.6725 9.45911 47.269 11.8484 46.8651 14.3241C46.6905 15.3951 47.1291 16.4542 48.0099 17.0879C50.0461 18.553 50.6066 21.3713 49.2862 23.5041C48.715 24.4268 48.715 25.5731 49.2862 26.4957C50.6066 28.6284 50.0461 31.4468 48.0099 32.9119C47.1291 33.5457 46.6905 34.6048 46.8651 35.6758C47.2689 38.1515 45.6725 40.5408 43.2306 41.1152C42.1743 41.3637 41.3638 42.1742 41.1153 43.2306C40.5409 45.6724 38.1516 47.269 35.6759 46.865C34.6052 46.6905 33.5459 47.1291 32.9121 48.0099C31.447 50.046 28.6286 50.6066 26.4958 49.2861C25.5732 48.7148 24.4269 48.7147 23.5043 49.2861C22.725 49.7687 21.8541 50 20.9913 50ZM14.7942 44.8733C16.3213 44.8733 17.7595 45.5986 18.6737 46.8689C19.5419 48.0755 21.2119 48.4078 22.4758 47.6252C24.0328 46.6614 25.9671 46.6613 27.5242 47.6252C28.788 48.4078 30.4582 48.0756 31.3263 46.8689C32.3959 45.3825 34.183 44.642 35.9903 44.937C37.457 45.1763 38.8734 44.2304 39.2137 42.7832C39.633 41.0007 41.0007 39.6329 42.7833 39.2136C44.2302 38.8732 45.1763 37.4573 44.937 35.9902C44.6422 34.1829 45.3826 32.3957 46.8689 31.3263C48.0756 30.4581 48.4078 28.7879 47.6252 27.5241C46.6613 25.9672 46.6613 24.0328 47.6252 22.4758C48.4078 21.212 48.0755 19.5418 46.8689 18.6736C45.3826 17.6041 44.6423 15.8169 44.937 14.0097C45.1763 12.5425 44.2302 11.1266 42.7832 10.7863C41.0006 10.367 39.6329 8.99926 39.2136 7.2167C38.8732 5.76966 37.4574 4.82378 35.9902 5.06298C34.1828 5.35776 32.3957 4.61739 31.3262 3.13108C30.458 1.9244 28.7879 1.59212 27.5241 2.37478C25.9671 3.33873 24.0328 3.33873 22.4757 2.37478C21.212 1.59231 19.5418 1.9244 18.6736 3.13108C17.604 4.61739 15.8167 5.35766 14.0096 5.06298C12.5427 4.82378 11.1266 5.76966 10.7862 7.2168C10.3669 8.99936 8.99918 10.3671 7.21662 10.7864C5.76966 11.1268 4.82359 12.5427 5.06289 14.0098C5.35767 15.8171 4.6173 17.6043 3.13098 18.6737C1.92431 19.542 1.59212 21.2121 2.37469 22.4759C3.33864 24.0328 3.33864 25.9672 2.37469 27.5242C1.59212 28.788 1.92441 30.4583 3.13098 31.3264C4.6173 32.3959 5.35757 34.1831 5.06289 35.9903C4.82359 37.4575 5.76966 38.8734 7.21671 39.2137C8.99928 39.633 10.367 41.0008 10.7863 42.7833C11.1267 44.2304 12.5429 45.1763 14.0097 44.937C14.2723 44.8943 14.5346 44.8733 14.7942 44.8733Z" fill="#4B49BF"/>
<path d="M24.9998 43.558C14.7668 43.558 6.44157 35.2328 6.44157 24.9998C6.44157 14.7668 14.7668 6.44164 24.9998 6.44164C28.3724 6.44164 31.675 7.35568 34.5506 9.08491C35.0129 9.36289 35.1623 9.96301 34.8843 10.4253C34.6064 10.8877 34.006 11.037 33.5439 10.7591C30.9724 9.21257 28.0178 8.39523 24.9999 8.39523C15.844 8.39523 8.39516 15.8441 8.39516 24.9999C8.39516 34.1557 15.844 41.6046 24.9999 41.6046C34.1557 41.6046 41.6045 34.1557 41.6045 24.9999C41.6045 22.0482 40.8205 19.1499 39.3372 16.6184C39.0645 16.1529 39.2208 15.5545 39.6861 15.2818C40.1516 15.0092 40.75 15.1653 41.0227 15.6307C42.6813 18.4615 43.5581 21.7012 43.5581 24.9998C43.5579 35.2328 35.2327 43.558 24.9998 43.558Z" fill="#4B49BF"/>
<path d="M37.5021 13.6157C37.2453 13.6157 36.9933 13.5112 36.8116 13.3295C36.6299 13.1479 36.5254 12.8959 36.5254 12.639C36.5254 12.3821 36.6299 12.1301 36.8116 11.9484C36.9933 11.7667 37.2453 11.6622 37.5021 11.6622C37.759 11.6622 38.011 11.7667 38.1927 11.9484C38.3744 12.1301 38.4789 12.3821 38.4789 12.639C38.4789 12.8959 38.3744 13.1479 38.1927 13.3295C38.011 13.5113 37.759 13.6157 37.5021 13.6157Z" fill="#4B49BF"/>
<path d="M18.94 33.3333C18.7844 33.3333 18.6522 33.2867 18.5433 33.1933C18.45 33.0844 18.4033 32.9522 18.4033 32.7967V19.73L14.53 22.7167C14.4211 22.81 14.3044 22.8567 14.18 22.8567C14.04 22.8567 13.9078 22.7789 13.7833 22.6233L13.1767 21.8533C13.0989 21.7444 13.06 21.6356 13.06 21.5267C13.06 21.34 13.1378 21.1922 13.2933 21.0833L18.38 17.1633C18.5511 17.0544 18.7533 17 18.9867 17H20.1767C20.3322 17 20.4567 17.0544 20.55 17.1633C20.6589 17.2567 20.7133 17.3811 20.7133 17.5367V32.7967C20.7133 32.9522 20.6589 33.0844 20.55 33.1933C20.4567 33.2867 20.3322 33.3333 20.1767 33.3333H18.94Z" fill="#4B49BF"/>
<path d="M29.8771 33.5667C27.8705 33.5667 26.4005 32.9833 25.4671 31.8167C24.5338 30.65 24.036 29.1178 23.9738 27.22C23.9582 26.8 23.9505 26.1233 23.9505 25.19C23.9505 24.2256 23.9582 23.5256 23.9738 23.09C24.0205 21.2233 24.5182 19.7067 25.4671 18.54C26.416 17.3578 27.886 16.7667 29.8771 16.7667C31.8838 16.7667 33.3616 17.3578 34.3105 18.54C35.2594 19.7067 35.7571 21.2233 35.8038 23.09C35.8349 23.9611 35.8505 24.6611 35.8505 25.19C35.8505 25.7033 35.8349 26.38 35.8038 27.22C35.7416 29.1178 35.2438 30.65 34.3105 31.8167C33.3771 32.9833 31.8994 33.5667 29.8771 33.5667ZM29.8771 31.56C31.0438 31.56 31.9227 31.1711 32.5138 30.3933C33.1205 29.6156 33.4394 28.5189 33.4705 27.1033C33.5016 26.2011 33.5171 25.5478 33.5171 25.1433C33.5171 24.7078 33.5016 24.07 33.4705 23.23C33.4394 21.83 33.1282 20.7333 32.5371 19.94C31.946 19.1467 31.0594 18.75 29.8771 18.75C28.7105 18.75 27.8238 19.1467 27.2171 19.94C26.626 20.7333 26.3149 21.83 26.2838 23.23L26.2605 25.1433L26.2838 27.1033C26.3149 28.5189 26.626 29.6156 27.2171 30.3933C27.8238 31.1711 28.7105 31.56 29.8771 31.56Z" fill="#4B49BF"/>
</svg>
