<svg width="251" height="48" viewBox="0 0 251 48" fill="none" xmlns="http://www.w3.org/2000/svg">
<path d="M19.9226 11.617H11.7754V12.4468L12.4755 11.7447L14.5123 13.8511L14.9579 13.4681L23.3597 22.4681V10.5957H23.9326V7.78723H25.7784L23.9962 6L19.9226 11.617Z" fill="#0009D9"/>
<path d="M10.5662 10.4043H19.35L23.8691 4.08511L27.4335 7.78723H31.5708L23.9328 0L18.4588 7.53191H7.76562V16.3404L10.5662 13.5957V10.4043Z" fill="#0009D9"/>
<path d="M27.9427 36.383H36.0899V35.5532L35.3898 36.2553L33.353 34.1489L32.9711 34.5319L24.5693 25.5319V37.4042H23.9328V40.2128H22.0869L23.8691 42.0638L27.9427 36.383Z" fill="#69A742"/>
<path d="M37.2993 37.5957H28.5792L23.9964 43.9149L20.432 40.2128H16.3584L23.9328 48L29.4067 40.4681H40.0999V31.6596L37.2993 34.4043V37.5957Z" fill="#69A742"/>
<path d="M11.5841 28.0213V36.1915H12.4116L11.7114 35.4894L13.8119 33.4468L13.43 33.0638L22.4046 24.5745H10.5657V24H7.76511V22.1489L5.98291 23.9362L11.5841 28.0213Z" fill="#C2107B"/>
<path d="M10.375 37.4043V28.6596L4.13726 24.0638L7.76532 20.4894V16.3404L0 24L7.51072 29.4894V40.2128H16.3581L13.5575 37.4043H10.375Z" fill="#C2107B"/>
<path d="M8.52943 19.7234V21.383L7.76562 22.1489V24H10.5662V13.5957L7.76562 16.3404V20.4894L8.52943 19.7234Z" fill="#59297D"/>
<path d="M11.7754 12.4468V23.4255H22.5323L14.8942 15.1915L13.8122 16.2128V14.5532L14.5123 13.8511L12.4755 11.7447L11.7754 12.4468Z" fill="#59297D"/>
<path d="M12.4116 36.1915H16.4852H18.1401H18.3947H23.3594V25.4043L15.1485 33.0638L16.1669 34.1489H14.512L13.8119 33.4468L11.7114 35.4894L12.4116 36.1915Z" fill="#A11D27"/>
<path d="M19.668 39.4468H21.3229L22.0867 40.2128H23.9326V37.4043H13.5576L16.3582 40.2128H20.4318L19.668 39.4468Z" fill="#A11D27"/>
<path d="M40.354 18.5106V7.78724H31.5703L34.3073 10.5957H37.4898V19.3404L43.7911 23.9362L40.0994 27.5106V31.6596L47.9284 24L40.354 18.5106Z" fill="#E5AF40"/>
<path d="M36.2805 19.9787V11.8085H35.453L36.2168 12.5106L34.0527 14.5532L34.4346 14.9362L25.46 23.4255H37.2989V24H40.0995V25.8511L41.9454 24.0638L36.2805 19.9787Z" fill="#E5AF40"/>
<path d="M35.453 11.8085H31.4431H29.7245H29.5336H24.5688V22.5957L32.7797 14.9362L31.6977 13.8511H33.3526L34.0527 14.5532L36.2168 12.5106L35.453 11.8085Z" fill="#3A6639"/>
<path d="M28.1972 8.55319H26.5423L25.7785 7.78724H23.9326V10.5957H34.3076L31.5706 7.78724H27.4334L28.1972 8.55319Z" fill="#3A6639"/>
<path d="M36.0889 35.5532V24.5745H25.332L32.97 32.8085L34.0521 31.7872V33.4468L33.352 34.1489L35.3888 36.2553L36.0889 35.5532Z" fill="#4E8B41"/>
<path d="M39.3361 28.2766V26.617L40.0999 25.8511V24H37.2993V34.4043L40.0999 31.6596V27.5106L39.3361 28.2766Z" fill="#4E8B41"/>
<path d="M64.669 38.1702H58.5586V10.2766H64.669V38.1702Z" fill="#141414"/>
<path d="M76.1894 23.1702H76.6986L75.8712 13.7234V10.2766H81.536V38.1702H75.0437L72.1794 25.3404H71.7339L72.4977 34.7234V38.1702H66.8965V10.2766H73.3888L76.1894 23.1702Z" fill="#141414"/>
<path d="M86.6282 17.2979H82.9365V10.2766H96.6213V13.7234L95.6666 17.2979H92.7386V38.1702H86.6282V17.2979Z" fill="#141414"/>
<path d="M111.133 38.1702H98.0215V10.2766H111.133V13.7234L110.179 17.2979H104.196V20.4255H110.179V27.383H104.196V31.2128H111.197V38.1702H111.133Z" fill="#141414"/>
<path d="M112.789 10.2766H125.073C125.773 10.2766 126.346 10.5957 126.792 11.234C127.237 11.8723 127.492 12.7021 127.492 13.7234V24.7021C127.492 25.3404 127.364 25.9787 127.046 26.617C126.728 27.2553 126.346 27.6383 125.901 27.8298L127.81 34.6596V38.1064H121.827L120.172 29.4255H118.963V38.1064H112.852V10.2766H112.789ZM121.381 17.2979H118.963V22.5319H121.381V17.2979Z" fill="#141414"/>
<path d="M131.629 10.2766H141.813L144.55 34.6596V38.1064H138.44L138.058 32.4894H135.384L135.003 38.1064H128.892V34.6596L131.629 10.2766ZM135.83 25.5957H137.612L137.039 17.2979H136.339L135.83 25.5957Z" fill="#141414"/>
<path d="M148.687 10.2766H159.317V13.7234L158.362 17.2979H152.379V31.2128H159.317V38.1702H148.687C147.987 38.1702 147.35 37.8511 146.905 37.2128C146.459 36.5745 146.205 35.7447 146.205 34.7234V13.7234C146.205 12.7021 146.459 11.8723 146.905 11.234C147.414 10.5957 147.987 10.2766 148.687 10.2766Z" fill="#141414"/>
<path d="M163.836 17.2979H160.144V10.2766H173.829V13.7234L172.874 17.2979H169.946V38.1702H163.836V17.2979Z" fill="#141414"/>
<path d="M181.34 38.1702H175.229V10.2766H181.34V38.1702Z" fill="#141414"/>
<path d="M185.859 38.1702L182.74 12.5745V10.2766H188.851L190.124 31.1489H190.824L192.097 10.2766H198.207V12.5745L195.088 38.1702H185.859Z" fill="#141414"/>
<path d="M212.655 38.1702H199.543V10.2766H212.655V13.7234L211.7 17.2979H205.717V20.4255H211.7V27.383H205.717V31.2128H212.719V38.1702H212.655Z" fill="#141414"/>
<path d="M214.311 31.1489H219.849V38.1064H214.311V31.1489Z" fill="#141414"/>
<path d="M223.157 24.3191C222.521 23.6809 222.075 23.0426 221.821 22.3404C221.566 21.6383 221.502 20.7447 221.502 19.5957V13.7234C221.502 12.7021 221.757 11.8723 222.203 11.234C222.648 10.5957 223.221 10.2766 223.985 10.2766H234.614V13.7234L233.66 17.2979H227.677V18.5745L232.959 23.617C233.596 24.2553 234.042 24.8936 234.296 25.5957C234.551 26.2979 234.614 27.1915 234.614 28.4043V34.7234C234.614 35.7447 234.36 36.5745 233.914 37.2128C233.469 37.8511 232.896 38.1702 232.196 38.1702H221.566V31.1489H228.504V29.2979L223.157 24.3191Z" fill="#141414"/>
<path d="M244.799 10.2766H250.909V38.1702H238.688C237.988 38.1702 237.352 37.8511 236.906 37.2128C236.461 36.5745 236.206 35.7447 236.206 34.7234V10.2766H242.316V31.1489H244.735V10.2766H244.799Z" fill="#141414"/>
</svg>
