<svg width="258" height="60" viewBox="0 0 258 60" fill="none" xmlns="http://www.w3.org/2000/svg">
<path d="M12.7711 31.9277C13.8731 31.9277 14.7666 31.0343 14.7666 29.9322C14.7666 28.8301 13.8731 27.9367 12.7711 27.9367C11.669 27.9367 10.7756 28.8301 10.7756 29.9322C10.7756 31.0343 11.669 31.9277 12.7711 31.9277Z" fill="white"/>
<path d="M27.1385 43.5015C28.2406 43.5015 29.134 42.6081 29.134 41.506C29.134 40.4039 28.2406 39.5105 27.1385 39.5105C26.0365 39.5105 25.1431 40.4039 25.1431 41.506C25.1431 42.6081 26.0365 43.5015 27.1385 43.5015Z" fill="white"/>
<path d="M29.9322 14.7666C31.0343 14.7666 31.9277 13.8731 31.9277 12.7711C31.9277 11.669 31.0343 10.7756 29.9322 10.7756C28.8301 10.7756 27.9367 11.669 27.9367 12.7711C27.9367 13.8731 28.8301 14.7666 29.9322 14.7666Z" fill="white"/>
<path d="M47.0933 26.3403C48.1954 26.3403 49.0888 25.4469 49.0888 24.3449C49.0888 23.2428 48.1954 22.3494 47.0933 22.3494C45.9913 22.3494 45.0979 23.2428 45.0979 24.3449C45.0979 25.4469 45.9913 26.3403 47.0933 26.3403Z" fill="white"/>
<path d="M59.8644 0V59.8644H39.9096V53.7742L49.0888 44.2997V28.699C50.7371 27.9407 51.8825 26.2765 51.8825 24.3449C51.8825 21.7028 49.7354 19.5557 47.0933 19.5557C44.4473 19.5557 42.3042 21.7028 42.3042 24.3449C42.3042 26.2765 43.4496 27.9407 45.0979 28.699V42.9427L39.9096 48.127L39.9176 36.2978L31.9277 28.3079V17.1252C33.576 16.3669 34.7214 14.7027 34.7214 12.7711C34.7214 10.1291 32.5742 7.98192 29.9322 7.98192C27.2862 7.98192 25.1431 10.1291 25.1431 12.7711C25.1431 14.7027 26.2885 16.3669 27.9367 17.1252V29.9601L35.9186 37.9461V59.8644H29.134V45.8601C30.7823 45.1018 31.9277 43.4376 31.9277 41.506C31.9277 38.864 29.7806 36.7168 27.1385 36.7168C24.4925 36.7168 22.3494 38.864 22.3494 41.506C22.3494 43.4376 23.4948 45.1018 25.1431 45.8601V59.8644H19.5557L19.5757 45.493C19.5757 45.493 14.9212 40.8345 14.7666 40.6799C14.6119 40.5252 14.7666 34.2863 14.7666 34.2863C16.4148 33.5281 17.5602 31.8638 17.5602 29.9322C17.5602 27.2902 15.4131 25.1431 12.7711 25.1431C10.1251 25.1431 7.98192 27.2902 7.98192 29.9322C7.98192 31.8638 9.12733 33.5281 10.7756 34.2863V42.2802L15.5647 47.1253V59.8644H0V0H59.8644Z" fill="white"/>
<path d="M12.7711 31.9277C13.8731 31.9277 14.7666 31.0343 14.7666 29.9322C14.7666 28.8301 13.8731 27.9367 12.7711 27.9367C11.669 27.9367 10.7756 28.8301 10.7756 29.9322C10.7756 31.0343 11.669 31.9277 12.7711 31.9277Z" fill="white"/>
<path d="M12.7711 31.9277C13.8731 31.9277 14.7666 31.0343 14.7666 29.9322C14.7666 28.8301 13.8731 27.9367 12.7711 27.9367C11.669 27.9367 10.7756 28.8301 10.7756 29.9322C10.7756 31.0343 11.669 31.9277 12.7711 31.9277Z" fill="white"/>
<path d="M27.1385 43.5015C28.2406 43.5015 29.134 42.6081 29.134 41.506C29.134 40.4039 28.2406 39.5105 27.1385 39.5105C26.0365 39.5105 25.1431 40.4039 25.1431 41.506C25.1431 42.6081 26.0365 43.5015 27.1385 43.5015Z" fill="white"/>
<path d="M27.1385 43.5015C28.2406 43.5015 29.134 42.6081 29.134 41.506C29.134 40.4039 28.2406 39.5105 27.1385 39.5105C26.0365 39.5105 25.1431 40.4039 25.1431 41.506C25.1431 42.6081 26.0365 43.5015 27.1385 43.5015Z" fill="white"/>
<path d="M29.9322 14.7666C31.0343 14.7666 31.9277 13.8731 31.9277 12.7711C31.9277 11.669 31.0343 10.7756 29.9322 10.7756C28.8301 10.7756 27.9367 11.669 27.9367 12.7711C27.9367 13.8731 28.8301 14.7666 29.9322 14.7666Z" fill="white"/>
<path d="M29.9322 14.7666C31.0343 14.7666 31.9277 13.8731 31.9277 12.7711C31.9277 11.669 31.0343 10.7756 29.9322 10.7756C28.8301 10.7756 27.9367 11.669 27.9367 12.7711C27.9367 13.8731 28.8301 14.7666 29.9322 14.7666Z" fill="white"/>
<path d="M47.0933 26.3403C48.1954 26.3403 49.0888 25.4469 49.0888 24.3449C49.0888 23.2428 48.1954 22.3494 47.0933 22.3494C45.9913 22.3494 45.0979 23.2428 45.0979 24.3449C45.0979 25.4469 45.9913 26.3403 47.0933 26.3403Z" fill="white"/>
<path d="M47.0933 26.3403C48.1954 26.3403 49.0888 25.4469 49.0888 24.3449C49.0888 23.2428 48.1954 22.3494 47.0933 22.3494C45.9913 22.3494 45.0979 23.2428 45.0979 24.3449C45.0979 25.4469 45.9913 26.3403 47.0933 26.3403Z" fill="white"/>
<path d="M83.4571 38.0827H79.3001V23.4076H83.4571V38.0827ZM83.8477 19.1669C83.8477 19.9295 83.5966 20.534 83.0944 20.9804C82.6108 21.4082 82.0342 21.6221 81.3646 21.6221C80.6951 21.6221 80.1092 21.4082 79.607 20.9804C79.1234 20.534 78.8816 19.9295 78.8816 19.1669C78.8816 18.4044 79.1234 17.8092 79.607 17.3814C80.1092 16.935 80.6951 16.7118 81.3646 16.7118C82.0342 16.7118 82.6108 16.935 83.0944 17.3814C83.5966 17.8092 83.8477 18.4044 83.8477 19.1669Z" fill="white"/>
<path d="M87.3647 23.9098C88.0715 23.7052 88.9829 23.5192 90.0989 23.3518C91.2149 23.1658 92.3866 23.0728 93.6142 23.0728C94.8604 23.0728 95.8926 23.2402 96.711 23.575C97.548 23.8912 98.2083 24.3469 98.6919 24.9421C99.1755 25.5373 99.5196 26.2441 99.7242 27.0625C99.9288 27.8808 100.031 28.7922 100.031 29.7966V38.0827H95.874V30.2988C95.874 28.9596 95.6974 28.011 95.344 27.453C94.9906 26.8951 94.3303 26.6161 93.3631 26.6161C93.0655 26.6161 92.7493 26.6347 92.4145 26.6719C92.0797 26.6905 91.7821 26.7184 91.5217 26.7556V38.0827H87.3647V23.9098Z" fill="white"/>
<path d="M103.654 19.7528L107.811 19.0832V23.4076H112.805V26.8672H107.811V32.0285C107.811 32.9027 107.96 33.6002 108.258 34.121C108.574 34.6418 109.197 34.9022 110.127 34.9022C110.573 34.9022 111.029 34.865 111.494 34.7906C111.978 34.6976 112.415 34.5767 112.805 34.4279L113.391 37.6642C112.889 37.8688 112.331 38.0455 111.717 38.1943C111.103 38.3431 110.35 38.4175 109.457 38.4175C108.323 38.4175 107.383 38.2687 106.639 37.9711C105.896 37.6549 105.3 37.2271 104.854 36.6877C104.408 36.1297 104.091 35.4602 103.905 34.679C103.738 33.8978 103.654 33.0329 103.654 32.0843V19.7528Z" fill="white"/>
<path d="M114.948 30.8568C114.948 29.5548 115.143 28.4202 115.534 27.453C115.943 26.4673 116.473 25.6489 117.124 24.9979C117.775 24.3469 118.519 23.854 119.356 23.5192C120.212 23.1844 121.086 23.017 121.979 23.017C124.062 23.017 125.708 23.6587 126.917 24.9421C128.126 26.2069 128.73 28.0761 128.73 30.5499C128.73 30.7917 128.721 31.0614 128.702 31.359C128.684 31.638 128.665 31.889 128.647 32.1122H119.217C119.31 32.9678 119.71 33.6467 120.416 34.1489C121.123 34.6511 122.072 34.9022 123.262 34.9022C124.025 34.9022 124.769 34.8371 125.494 34.7069C126.238 34.5581 126.842 34.3814 127.307 34.1768L127.865 37.5526C127.642 37.6642 127.345 37.7758 126.973 37.8874C126.601 37.999 126.182 38.092 125.717 38.1664C125.271 38.2594 124.787 38.3338 124.266 38.3896C123.746 38.4454 123.225 38.4733 122.704 38.4733C121.384 38.4733 120.23 38.278 119.245 37.8874C118.277 37.4968 117.468 36.9667 116.817 36.2971C116.185 35.609 115.711 34.7999 115.394 33.8699C115.097 32.9399 114.948 31.9355 114.948 30.8568ZM124.713 29.2665C124.694 28.9131 124.629 28.569 124.518 28.2342C124.425 27.8994 124.266 27.6018 124.043 27.3414C123.839 27.0811 123.569 26.8672 123.234 26.6998C122.918 26.5324 122.518 26.4487 122.034 26.4487C121.569 26.4487 121.17 26.5324 120.835 26.6998C120.5 26.8486 120.221 27.0532 119.998 27.3135C119.775 27.5739 119.598 27.8808 119.468 28.2342C119.356 28.569 119.272 28.9131 119.217 29.2665H124.713Z" fill="white"/>
<path d="M140.782 27.0904C140.41 26.9974 139.973 26.9044 139.471 26.8114C138.969 26.6998 138.43 26.644 137.853 26.644C137.593 26.644 137.276 26.6719 136.904 26.7277C136.551 26.7649 136.281 26.8114 136.095 26.8672V38.0827H131.938V24.1888C132.682 23.9284 133.556 23.6866 134.561 23.4634C135.584 23.2216 136.718 23.1007 137.965 23.1007C138.188 23.1007 138.457 23.1193 138.774 23.1565C139.09 23.1751 139.406 23.2123 139.722 23.2681C140.038 23.3053 140.355 23.3611 140.671 23.4355C140.987 23.4913 141.257 23.5657 141.48 23.6587L140.782 27.0904Z" fill="white"/>
<path d="M149.044 35.1812C149.453 35.1812 149.843 35.1719 150.215 35.1533C150.587 35.1347 150.885 35.1068 151.108 35.0696V31.9169C150.941 31.8797 150.69 31.8425 150.355 31.8053C150.02 31.7681 149.713 31.7495 149.434 31.7495C149.044 31.7495 148.672 31.7774 148.318 31.8332C147.984 31.8704 147.686 31.9541 147.426 32.0843C147.165 32.2145 146.961 32.3912 146.812 32.6144C146.663 32.8376 146.589 33.1166 146.589 33.4514C146.589 34.1024 146.802 34.5581 147.23 34.8185C147.677 35.0603 148.281 35.1812 149.044 35.1812ZM148.709 23.017C149.936 23.017 150.959 23.1565 151.778 23.4355C152.596 23.7145 153.247 24.1144 153.731 24.6352C154.233 25.156 154.586 25.7884 154.791 26.5324C154.996 27.2764 155.098 28.104 155.098 29.0154V37.6642C154.503 37.7944 153.675 37.9432 152.615 38.1106C151.555 38.2966 150.271 38.3896 148.765 38.3896C147.816 38.3896 146.951 38.3059 146.17 38.1385C145.407 37.9711 144.747 37.7014 144.189 37.3294C143.631 36.9388 143.203 36.4366 142.906 35.8229C142.608 35.2091 142.459 34.4558 142.459 33.563C142.459 32.7074 142.627 31.982 142.962 31.3869C143.315 30.7917 143.78 30.3174 144.357 29.964C144.933 29.6106 145.593 29.3595 146.337 29.2107C147.081 29.0433 147.853 28.9596 148.653 28.9596C149.192 28.9596 149.667 28.9875 150.076 29.0433C150.504 29.0805 150.848 29.1363 151.108 29.2107V28.8201C151.108 28.1133 150.894 27.546 150.467 27.1183C150.039 26.6905 149.295 26.4766 148.235 26.4766C147.528 26.4766 146.83 26.5324 146.142 26.644C145.454 26.737 144.859 26.8765 144.357 27.0625L143.827 23.7145C144.068 23.6401 144.366 23.5657 144.719 23.4913C145.091 23.3983 145.491 23.3239 145.919 23.2681C146.347 23.1937 146.793 23.1379 147.258 23.1007C147.742 23.0449 148.225 23.017 148.709 23.017Z" fill="white"/>
<path d="M158.159 30.7452C158.159 29.685 158.327 28.6899 158.662 27.7599C159.015 26.8114 159.517 25.993 160.168 25.3048C160.819 24.598 161.61 24.04 162.54 23.6308C163.47 23.2216 164.53 23.017 165.72 23.017C166.501 23.017 167.217 23.0914 167.868 23.2402C168.519 23.3704 169.152 23.5657 169.766 23.8261L168.901 27.1462C168.51 26.9974 168.082 26.8672 167.617 26.7556C167.152 26.644 166.631 26.5882 166.055 26.5882C164.827 26.5882 163.907 26.9695 163.293 27.732C162.698 28.4946 162.4 29.499 162.4 30.7452C162.4 32.0657 162.679 33.0887 163.237 33.8141C163.814 34.5395 164.809 34.9022 166.222 34.9022C166.724 34.9022 167.264 34.8557 167.84 34.7627C168.417 34.6697 168.947 34.5209 169.431 34.3163L170.017 37.72C169.533 37.9246 168.929 38.1013 168.203 38.2501C167.478 38.3989 166.678 38.4733 165.804 38.4733C164.465 38.4733 163.311 38.278 162.344 37.8874C161.377 37.4782 160.577 36.9295 159.945 36.2413C159.331 35.5532 158.875 34.7441 158.578 33.8141C158.299 32.8655 158.159 31.8425 158.159 30.7452Z" fill="white"/>
<path d="M172.667 19.7528L176.824 19.0832V23.4076H181.818V26.8672H176.824V32.0285C176.824 32.9027 176.973 33.6002 177.27 34.121C177.587 34.6418 178.21 34.9022 179.14 34.9022C179.586 34.9022 180.042 34.865 180.507 34.7906C180.99 34.6976 181.427 34.5767 181.818 34.4279L182.404 37.6642C181.902 37.8688 181.344 38.0455 180.73 38.1943C180.116 38.3431 179.363 38.4175 178.47 38.4175C177.336 38.4175 176.396 38.2687 175.652 37.9711C174.908 37.6549 174.313 37.2271 173.867 36.6877C173.42 36.1297 173.104 35.4602 172.918 34.679C172.751 33.8978 172.667 33.0329 172.667 32.0843V19.7528Z" fill="white"/>
<path d="M189.36 38.0827H185.203V23.4076H189.36V38.0827ZM189.751 19.1669C189.751 19.9295 189.5 20.534 188.998 20.9804C188.514 21.4082 187.937 21.6221 187.268 21.6221C186.598 21.6221 186.012 21.4082 185.51 20.9804C185.027 20.534 184.785 19.9295 184.785 19.1669C184.785 18.4044 185.027 17.8092 185.51 17.3814C186.012 16.935 186.598 16.7118 187.268 16.7118C187.937 16.7118 188.514 16.935 188.998 17.3814C189.5 17.8092 189.751 18.4044 189.751 19.1669Z" fill="white"/>
<path d="M196.822 38.0827C195.873 36.2227 194.906 34.0466 193.92 31.5543C192.953 29.0619 192.032 26.3464 191.158 23.4076H195.566C195.752 24.133 195.966 24.9235 196.208 25.7791C196.468 26.6161 196.729 27.4716 196.989 28.3458C197.268 29.2014 197.538 30.0384 197.798 30.8568C198.077 31.6751 198.347 32.4191 198.607 33.0887C198.849 32.4191 199.109 31.6751 199.388 30.8568C199.667 30.0384 199.937 29.2014 200.197 28.3458C200.476 27.4716 200.737 26.6161 200.979 25.7791C201.239 24.9235 201.462 24.133 201.648 23.4076H205.945C205.07 26.3464 204.14 29.0619 203.155 31.5543C202.188 34.0466 201.23 36.2227 200.281 38.0827H196.822Z" fill="white"/>
<path d="M207.092 30.8568C207.092 29.5548 207.288 28.4202 207.678 27.453C208.087 26.4673 208.617 25.6489 209.268 24.9979C209.919 24.3469 210.663 23.854 211.5 23.5192C212.356 23.1844 213.23 23.017 214.123 23.017C216.206 23.017 217.852 23.6587 219.061 24.9421C220.27 26.2069 220.875 28.0761 220.875 30.5499C220.875 30.7917 220.865 31.0614 220.847 31.359C220.828 31.638 220.809 31.889 220.791 32.1122H211.361C211.454 32.9678 211.854 33.6467 212.561 34.1489C213.267 34.6511 214.216 34.9022 215.406 34.9022C216.169 34.9022 216.913 34.8371 217.638 34.7069C218.382 34.5581 218.987 34.3814 219.452 34.1768L220.01 37.5526C219.786 37.6642 219.489 37.7758 219.117 37.8874C218.745 37.999 218.326 38.092 217.861 38.1664C217.415 38.2594 216.931 38.3338 216.411 38.3896C215.89 38.4454 215.369 38.4733 214.848 38.4733C213.528 38.4733 212.375 38.278 211.389 37.8874C210.422 37.4968 209.612 36.9667 208.961 36.2971C208.329 35.609 207.855 34.7999 207.539 33.8699C207.241 32.9399 207.092 31.9355 207.092 30.8568ZM216.857 29.2665C216.838 28.9131 216.773 28.569 216.662 28.2342C216.569 27.8994 216.411 27.6018 216.187 27.3414C215.983 27.0811 215.713 26.8672 215.378 26.6998C215.062 26.5324 214.662 26.4487 214.179 26.4487C213.714 26.4487 213.314 26.5324 212.979 26.6998C212.644 26.8486 212.365 27.0532 212.142 27.3135C211.919 27.5739 211.742 27.8808 211.612 28.2342C211.5 28.569 211.417 28.9131 211.361 29.2665H216.857Z" fill="white"/>
<path d="M228.156 35.8787C228.156 36.7156 227.886 37.3573 227.347 37.8037C226.826 38.2315 226.231 38.4454 225.561 38.4454C224.892 38.4454 224.287 38.2315 223.748 37.8037C223.227 37.3573 222.967 36.7156 222.967 35.8787C222.967 35.0417 223.227 34.4093 223.748 33.9815C224.287 33.5351 224.892 33.3119 225.561 33.3119C226.231 33.3119 226.826 33.5351 227.347 33.9815C227.886 34.4093 228.156 35.0417 228.156 35.8787Z" fill="white"/>
<path d="M235.161 35.0975C235.924 35.0975 236.463 35.0231 236.779 34.8743C237.096 34.7255 237.254 34.4372 237.254 34.0094C237.254 33.6746 237.049 33.3863 236.64 33.1445C236.231 32.8841 235.608 32.5958 234.771 32.2796C234.12 32.0378 233.524 31.7867 232.985 31.5264C232.464 31.266 232.018 30.9591 231.646 30.6057C231.274 30.2337 230.986 29.7966 230.781 29.2944C230.576 28.7922 230.474 28.1877 230.474 27.4809C230.474 26.1046 230.986 25.0165 232.009 24.2167C233.032 23.4169 234.436 23.017 236.221 23.017C237.114 23.017 237.97 23.1007 238.788 23.2681C239.606 23.4169 240.257 23.5843 240.741 23.7703L240.016 27.0067C239.532 26.8393 239.002 26.6905 238.425 26.5603C237.867 26.4301 237.235 26.365 236.528 26.365C235.226 26.365 234.575 26.7277 234.575 27.453C234.575 27.6204 234.603 27.7692 234.659 27.8994C234.715 28.0296 234.826 28.1598 234.994 28.29C235.161 28.4016 235.384 28.5318 235.663 28.6806C235.961 28.8108 236.333 28.9596 236.779 29.127C237.691 29.4618 238.444 29.7966 239.039 30.1314C239.634 30.4476 240.099 30.801 240.434 31.1916C240.788 31.5636 241.029 31.982 241.16 32.447C241.308 32.912 241.383 33.4514 241.383 34.0652C241.383 35.516 240.834 36.6133 239.737 37.3573C238.658 38.1013 237.123 38.4733 235.133 38.4733C233.831 38.4733 232.743 38.3617 231.869 38.1385C231.013 37.9153 230.418 37.7293 230.083 37.5805L230.781 34.2047C231.488 34.4837 232.213 34.7069 232.957 34.8743C233.701 35.0231 234.436 35.0975 235.161 35.0975Z" fill="white"/>
<path d="M257.016 37.5805C256.309 37.7851 255.398 37.9711 254.282 38.1385C253.166 38.3245 251.994 38.4175 250.767 38.4175C249.521 38.4175 248.479 38.2501 247.642 37.9153C246.824 37.5805 246.173 37.1155 245.689 36.5203C245.205 35.9066 244.861 35.1812 244.657 34.3442C244.452 33.5072 244.35 32.5865 244.35 31.5822V23.4076H248.507V31.08C248.507 32.4191 248.684 33.3863 249.037 33.9815C249.39 34.5767 250.051 34.8743 251.018 34.8743C251.315 34.8743 251.632 34.865 251.966 34.8464C252.301 34.8092 252.599 34.772 252.859 34.7348V23.4076H257.016V37.5805Z" fill="white"/>
</svg>
